<svg width="256" height="256" viewBox="0 0 256 256" fill="none" xmlns="http://www.w3.org/2000/svg">
<mask id="mask0_2217_37306" style="mask-type:luminance" maskUnits="userSpaceOnUse" x="16" y="4" width="225" height="247">
<path fill-rule="evenodd" clip-rule="evenodd" d="M152.491 4.89366C148.753 5.2715 147.062 5.28881 145.523 4.96721C145.419 4.93836 145.316 4.90952 145.216 4.88212C137.872 5.14459 130.687 5.99691 123.691 7.3958C123.148 7.76788 122.773 8.14428 122.637 8.51636C122.763 8.61443 122.931 8.7471 123.057 8.84661C125.18 9.2807 127.245 8.83219 129.31 8.38656C131.478 7.91786 133.647 7.44916 135.882 7.99718C137.934 8.49905 137.06 10.0941 136.59 10.9522C136.446 11.219 136.202 11.6617 136.434 12.1246C138 15.2238 154.954 9.78113 157.048 5.50801C157.011 5.39841 156.96 5.25275 156.924 5.14459C156.777 5.07248 156.636 5.0047 156.466 4.94413C155.373 4.89221 154.272 4.85472 153.172 4.8302C152.96 4.84751 152.734 4.86914 152.491 4.89366ZM111.716 12.7347C107.68 13.7096 105.93 13.9288 104.513 13.6418C104.348 13.5884 104.185 13.5365 104.026 13.486C103.785 13.3649 103.626 13.238 103.538 13.1067C97.741 15.257 92.1411 17.7923 86.7547 20.6896C86.8397 20.655 86.9263 20.619 87.0157 20.5829C88.3497 20.0392 92.4079 18.3836 94.2813 18.959C95.9585 19.4739 94.6836 21.6501 93.9986 22.8182C93.7434 23.2523 93.1492 24.2676 93.8097 24.9123C95.3196 26.3919 101.374 24.2013 104.989 22.2572C109.474 19.846 116.965 15.1128 116.593 12.6626C116.227 12.4333 115.87 12.2112 115.001 12.2112C114.314 12.2112 113.305 12.3496 111.716 12.7347ZM117.003 20.0998C110.33 24.1565 108.318 29.0397 112.783 30.3449C115.715 30.9549 118.55 30.2828 121.387 29.6108C124.389 28.8969 127.393 28.1845 130.514 28.9964C134.864 30.1285 136.116 32.8816 136.789 34.3613C138.013 37.0494 140.526 37.6061 141.267 37.71C144.554 38.1815 147.682 37.521 150.566 35.7501C156.41 32.162 157.921 26.0689 155.278 23.4167C153.72 21.8549 151.087 21.5001 147.447 22.3654C143.282 23.3547 140.813 23.4643 137.662 22.8024C137.266 22.7014 136.874 22.599 136.482 22.4981C136.46 22.4923 136.441 22.4865 136.421 22.4822C134.004 21.7251 132.48 20.7877 132.354 18.4571C132.252 16.5333 130.833 16.3602 129.192 16.1598C129.062 16.1439 128.908 16.1353 128.73 16.1353C126.716 16.1353 121.775 17.1981 117.003 20.0998ZM55.7599 43.6574C55.5825 44.0929 55.5464 44.4347 55.7382 44.6294C57.5049 46.4422 75.0329 31.6096 76.3481 27.1879C76.3092 27.1302 76.263 27.0624 76.2183 26.9946C68.8576 31.8735 62.0044 37.459 55.7599 43.6574ZM74.0838 36.1467C73.9728 36.2404 63.1667 45.5149 68.2979 48.7108C69.8641 49.028 71.2673 48.7382 73.8589 47.5642C75.7567 46.7047 80.2015 44.6915 84.1631 45.7961C88.0468 46.8806 88.902 50.238 89.3116 51.8518C90.1365 55.0938 92.8377 55.587 93.3727 55.6533C94.6389 55.8105 98.4953 56.2879 103.602 53.0834C110.157 48.9718 113.73 41.5649 110.956 37.8455C110.113 36.7192 107.882 35.0795 102.372 36.761C97.7396 38.1743 95.1769 38.4411 92.2161 37.8181C91.8325 37.7114 91.4532 37.6061 91.0768 37.5023C87.819 36.3442 87.943 34.8329 88.1478 32.3307C88.2718 30.8179 87.4152 30.1545 85.9773 30.1545C83.2199 30.153 78.3209 32.5917 74.0838 36.1467ZM120.748 48.891C115.775 54.7966 117.347 61.8084 124.046 63.6024C127.641 64.3379 131.095 63.464 134.548 62.5915C138.168 61.6771 141.786 60.7628 145.57 61.6973C151.598 63.1885 154.523 66.9886 155.928 68.8158C158.245 71.8299 160.879 72.8293 162.681 73.1351C163.831 73.3312 167.328 73.9268 171.102 71.6223C176.367 68.4034 179.517 59.6581 172.466 53.2823C172.068 52.9218 168.387 49.8197 162.141 51.9743C157.683 53.5102 154.706 53.7323 150.342 52.8482C149.752 52.7026 149.165 52.5584 148.578 52.4127C144.398 51.1854 142.164 49.6423 140.039 46.5143C138.033 43.5607 135.664 43.2608 133.371 42.9694C133.168 42.9435 132.938 42.9305 132.684 42.9305C129.936 42.9305 124.448 44.4953 120.748 48.891ZM48.2316 51.7695C42.8899 58.0241 38.1091 64.7807 33.9788 71.9511C33.7408 72.9303 33.735 73.735 34.0811 74.2326C34.8253 74.3523 35.6574 73.8475 37.3765 72.228C38.4249 71.2415 41.6121 68.239 44.1748 69.0639C46.6294 69.8527 46.8933 73.5418 47.0188 75.3128C47.2509 78.5533 48.9383 79.1085 49.6521 79.1965C50.5722 79.3104 52.4845 79.5455 56.0106 76.9395C60.1914 73.8461 67.5291 64.7028 65.5462 57.58C65.5375 57.5425 64.4833 54.0265 58.8199 57.0593C55.0184 59.0957 53.0672 59.6466 51.0842 59.2529C50.8333 59.1721 50.5881 59.0928 50.3458 59.0149C47.3274 57.5915 50.1987 54.2933 49.8569 51.9498C49.8007 51.5662 49.6017 51.3859 49.2858 51.3859C49.0147 51.3859 48.6585 51.5186 48.2316 51.7695ZM72.47 69.5631C67.4484 76.5878 68.3093 84.2904 74.3145 86.0455C76.9233 86.582 78.8183 86.3094 81.8166 84.9624C84.0231 83.9702 89.1932 81.6483 95.5748 83.3039C101.853 84.9293 104.721 89.1995 106.1 91.2488C108.368 94.6235 111.133 95.7281 113.054 96.0613C114.418 96.2992 118.042 96.9266 122.474 94.3985C128.871 90.7484 133.612 80.8624 126.482 73.6761C126.062 73.2507 122.155 69.6049 114.673 72.1142C109.42 73.8751 106.072 74.139 101.403 73.1584C100.803 73.0041 100.207 72.8483 99.6114 72.6954L99.5205 72.6723C95.7551 71.4999 93.1678 70.0346 91.0825 66.0053C89.3331 62.6306 87.1425 62.3782 84.8221 62.1114C84.6951 62.097 84.5538 62.0883 84.3995 62.0883C82.0574 62.0883 76.5816 63.8103 72.47 69.5631ZM143.038 87.6779C139.415 94.9623 143.248 103.439 151.079 105.463C154.428 106.116 156.617 105.875 159.763 104.508C162.273 103.418 167.493 101.148 174.465 102.802C181.43 104.453 185.116 108.836 186.887 110.941C189.209 113.705 191.806 115.33 194.605 115.777C195.837 115.973 199.585 116.57 203.352 113.79C208.753 109.804 211.096 99.319 202.474 91.9626C201.967 91.5314 197.341 87.8294 190.804 90.6646C186.194 92.6649 182.922 93.0081 177.841 92.0289C177.151 91.866 176.457 91.7016 175.762 91.5357C168.071 89.3638 163.876 81.0339 155.513 80.0475C155.309 80.0229 155.081 80.01 154.832 80.01C151.907 80.01 145.984 81.7507 143.038 87.6779ZM27.7674 84.648C27.5727 84.909 27.3896 85.1542 27.2165 85.3835C24.3134 92.065 21.9396 99.0248 20.147 106.221C20.1095 106.814 20.1023 107.097 20.1124 107.46C20.1744 109.86 21.0196 110.421 22.4358 109.002C24.9321 106.497 30.1729 95.2075 31.07 85.7108C31.1723 84.6321 31.0887 82.652 30.1095 82.652C29.6018 82.652 28.8548 83.1827 27.7674 84.648ZM34.2197 96.5457C30.7815 104.525 31.2704 113.008 35.2436 114.343C36.9799 114.682 38.2591 114.212 40.3142 112.483C41.7016 111.315 45.3863 108.213 50.1844 109.541C54.8988 110.848 57.2827 115.346 58.4263 117.507C60.4136 121.261 62.9431 122.173 64.2728 122.381C65.4381 122.564 68.5373 123.05 72.4152 120.165C77.0777 116.697 83.1709 106.064 76.1273 97.1932C76.0913 97.1485 72.408 92.6504 65.6544 95.9861C61.1375 98.2186 58.3946 98.719 54.7848 97.972C54.3017 97.8379 53.8229 97.7037 53.3513 97.5725C49.1792 96.0943 48.4235 94.0003 47.0534 90.1973C46.2689 88.0196 44.9911 87.0649 43.5028 87.0649C40.4945 87.0649 36.6237 90.9631 34.2197 96.5457ZM91.9522 112.314C88.3281 120.165 92.1383 129.531 99.7918 131.584C103.104 132.251 105.299 131.972 108.489 130.471C110.849 129.364 116.369 126.768 123.727 128.585C131.035 130.389 134.732 135.119 136.511 137.392C138.835 140.366 141.532 142.127 144.525 142.621C145.844 142.842 149.865 143.508 154.301 140.631C160.974 136.3 164.774 125.289 155.802 117.19C155.589 116.997 150.464 112.489 142.548 115.558C137.122 117.66 133.458 118.001 128.025 116.909C127.284 116.727 126.544 116.544 125.804 116.361C120.497 114.799 117.549 112.823 114.115 108.534C110.859 104.466 107.853 104.107 104.948 103.761C104.749 103.736 104.525 103.723 104.28 103.723C101.241 103.723 95.0125 105.679 91.9522 112.314ZM17.5469 119.509C16.647 125.778 16.1812 132.182 16.1812 138.7C16.1812 141.566 16.272 144.413 16.4494 147.235C17.0623 147.264 17.5022 146.631 18.141 144.838C19.7217 140.4 21.7537 140.435 23.1785 141.246C27.7545 143.852 28.1136 155.344 34.3942 151.742C39.1158 149.033 41.7247 136.215 37.8972 127.842C37.5741 127.135 34.6091 121.065 30.134 125.764C27.5396 128.49 25.9777 129.277 23.9457 128.883C23.6732 128.797 23.4064 128.71 23.1453 128.628C19.1087 126.765 20.9201 122.196 18.8794 119.41C18.6876 119.147 18.4872 119.022 18.2795 119.022C18.0401 119.022 17.7935 119.191 17.5469 119.509ZM175.282 132.763C172.426 140.113 175.696 149.934 184.341 152.076C187.743 152.699 189.956 152.382 193.102 150.82C195.628 149.567 200.878 146.959 207.782 148.53C214.73 150.11 218.131 154.823 219.585 156.838C221.631 159.676 223.991 161.301 226.592 161.666C227.731 161.826 231.196 162.312 235.014 159.192C240.593 154.632 243.607 143.185 235.636 135.625C235.156 135.17 230.741 131.26 224.192 134.66C219.605 137.043 216.333 137.542 211.23 136.632C210.532 136.473 209.831 136.313 209.131 136.155C200.938 133.887 196.677 124.767 187.701 123.869C187.539 123.853 187.358 123.844 187.166 123.844C184.178 123.844 177.942 125.905 175.282 132.763ZM48.8072 140.532C46.931 148.482 50.6748 157.314 56.6612 159.059C59.2196 159.585 60.8665 159.255 63.1927 157.747C64.7921 156.711 69.0392 153.958 75.6818 155.674C82.1975 157.357 86.1303 162.098 87.8104 164.122C90.1553 166.948 92.7325 168.62 95.4711 169.095C96.8181 169.327 100.39 169.944 104.245 167.279C110.937 162.653 112.578 151.231 104.581 143.988C104.027 143.489 98.9799 139.196 91.8138 142.389C86.8427 144.601 83.4825 144.998 78.4926 143.958C77.8451 143.791 77.1975 143.624 76.5529 143.456C76.5197 143.448 76.4866 143.439 76.4548 143.43C72.3158 142.142 69.2397 140.457 65.7612 135.641C62.7933 131.535 60.4584 131.29 57.9851 131.031C57.8827 131.019 57.7731 131.013 57.6592 131.013C55.183 131.013 50.4354 133.632 48.8072 140.532ZM124.053 159.845C121.149 167.581 125.686 176.479 133.573 178.514C136.914 179.168 139.095 178.928 142.211 177.563C144.558 176.535 150.05 174.127 157.305 175.849C164.548 177.568 168.165 182.135 169.708 184.085C171.851 186.793 174.366 188.397 177.181 188.848C178.425 189.049 182.211 189.654 186.548 187.012C194.035 182.448 196.801 171.303 189.001 164.306C188.128 163.521 183.387 159.767 175.886 162.874C170.544 165.086 166.88 165.475 161.362 164.417C160.609 164.239 159.858 164.062 159.106 163.882C150.587 161.467 146.078 152.093 136.783 151.022C136.568 150.997 136.335 150.984 136.088 150.984C132.706 150.984 126.492 153.351 124.053 159.845ZM23.1886 181.563C23.4943 177.507 21.9714 166.841 19.2486 159.708C18.7295 158.347 18.0026 156.992 17.3753 156.655C18.5261 165.242 20.4918 173.573 23.1886 181.563ZM26.5603 170.637C27.2223 178.209 31.093 186.193 34.6782 187.387C36.1146 187.676 36.9021 187.237 37.7991 185.654C40.1743 181.459 43.9412 182.331 46.6828 183.804C49.8858 185.523 52.2726 188.365 53.6974 190.063C59.0161 196.407 63.269 194.282 64.4458 193.481C70.226 189.542 68.8877 177.892 63.7017 172.395C58.559 166.942 54.73 167.84 52.424 169.555C49.3407 171.847 47.1919 172.386 43.9023 171.7C43.448 171.574 42.9995 171.45 42.5553 171.326C37.7544 169.655 36.0584 164.679 32.4025 161.791C31.5617 161.126 30.7714 160.813 30.0605 160.813C27.5713 160.811 26.0368 164.645 26.5603 170.637ZM79.9073 185.207C78.68 192.319 83.7997 200.485 90.6456 202.338C93.4852 202.921 95.2504 202.693 97.6386 201.443C99.2856 200.58 103.655 198.289 110.322 199.934C116.933 201.564 120.647 205.736 122.232 207.517C124.432 209.989 126.855 211.467 129.432 211.907C130.573 212.103 134.043 212.699 137.824 210.426C144.525 206.401 146.379 196.337 138.633 189.881C138.083 189.422 133.052 185.479 125.993 188.281C121.123 190.212 117.77 190.517 112.706 189.49C112.01 189.32 111.315 189.147 110.619 188.975C102.623 186.64 98.2198 178.005 89.5005 176.936C89.3087 176.911 89.1025 176.9 88.8861 176.9C85.9514 176.9 80.9557 179.118 79.9073 185.207ZM35.5189 197.543C34.7964 199.976 34.0725 200.658 32.5394 200.355C32.3174 200.285 32.1025 200.215 31.889 200.146C31.5458 199.996 31.1723 199.806 30.7425 199.486C32.7385 203.4 34.9248 207.204 37.2842 210.883C37.4933 210.988 37.7269 211.127 37.9908 211.303C39.8267 212.53 41.9524 214.946 43.2201 216.389C46.0539 219.614 47.5379 219.992 48.2835 219.744C51.1909 218.77 47.9561 206.764 41.8572 199.253C40.5319 197.621 38.6268 195.978 37.2034 195.978C36.4621 195.978 35.8506 196.423 35.5189 197.543ZM54.208 209.914C55.5608 216.244 61.1751 223.49 65.7583 224.823C67.6158 225.211 68.5647 224.943 69.6665 223.723C70.4236 222.882 72.4398 220.652 77.6431 221.992C82.6878 223.291 86.4936 226.943 88.1189 228.502C89.0044 229.35 91.3537 231.603 94.4442 232.243C96.1619 232.596 97.6689 232.423 99.0491 231.706C105.34 228.443 103.311 218.251 98.5659 214.184C96.72 212.602 91.8195 208.403 86.4619 211.275C83.0743 213.092 80.7034 213.405 76.71 212.562C76.1836 212.426 75.6601 212.292 75.1366 212.154C75.1107 212.148 75.0833 212.142 75.0573 212.135C69.8699 210.543 66.5327 206.242 62.2192 203.371C60.7222 202.373 59.2498 201.875 57.9692 201.874C55.0012 201.874 53.0615 204.553 54.208 209.914ZM49.6393 227.25C54.6753 232.958 60.1886 238.232 66.1188 243.013C66.9437 242.592 68.6137 243.307 69.3175 243.647C71.6567 244.781 74.0911 246.735 75.5448 247.905C79.4184 251.015 81.11 251.047 81.8456 250.525C84.3073 248.783 79.8813 239.329 74.5612 234.961C69.0449 230.436 67.2783 232.078 66.7735 232.997C65.7857 234.795 64.7877 235.231 62.6663 234.784C62.3591 234.699 62.0534 234.615 61.7519 234.531C59.7949 233.864 57.9879 232.841 54.5469 229.604C51.5876 226.82 50.8074 226.79 49.9032 226.754C49.782 226.892 49.6941 227.058 49.6393 227.25Z" fill="white"/>
</mask>
<g mask="url(#mask0_2217_37306)">
<path fill-rule="evenodd" clip-rule="evenodd" d="M152.491 4.89366C148.753 5.2715 147.062 5.28881 145.523 4.96721C145.419 4.93836 145.316 4.90952 145.216 4.88212C137.872 5.14459 130.687 5.99691 123.691 7.3958C123.148 7.76788 122.773 8.14428 122.637 8.51636C122.763 8.61443 122.931 8.7471 123.057 8.84661C125.18 9.2807 127.245 8.83219 129.31 8.38656C131.478 7.91786 133.647 7.44916 135.882 7.99718C137.934 8.49905 137.06 10.0941 136.59 10.9522C136.446 11.219 136.202 11.6617 136.434 12.1246C138 15.2238 154.954 9.78113 157.048 5.50801C157.011 5.39841 156.96 5.25275 156.924 5.14459C156.777 5.07248 156.636 5.0047 156.466 4.94413C155.373 4.89221 154.272 4.85472 153.172 4.8302C152.96 4.84751 152.734 4.86914 152.491 4.89366ZM111.716 12.7347C107.68 13.7096 105.93 13.9288 104.513 13.6418C104.348 13.5884 104.185 13.5365 104.026 13.486C103.785 13.3649 103.626 13.238 103.538 13.1067C97.741 15.257 92.1411 17.7923 86.7547 20.6896C86.8397 20.655 86.9263 20.619 87.0157 20.5829C88.3497 20.0392 92.4079 18.3836 94.2813 18.959C95.9585 19.4739 94.6836 21.6501 93.9986 22.8182C93.7434 23.2523 93.1492 24.2676 93.8097 24.9123C95.3196 26.3919 101.374 24.2013 104.989 22.2572C109.474 19.846 116.965 15.1128 116.593 12.6626C116.227 12.4333 115.87 12.2112 115.001 12.2112C114.314 12.2112 113.305 12.3496 111.716 12.7347ZM117.003 20.0998C110.33 24.1565 108.318 29.0397 112.783 30.3449C115.715 30.9549 118.55 30.2828 121.387 29.6108C124.389 28.8969 127.393 28.1845 130.514 28.9964C134.864 30.1285 136.116 32.8816 136.789 34.3613C138.013 37.0494 140.526 37.6061 141.267 37.71C144.554 38.1815 147.682 37.521 150.566 35.7501C156.41 32.162 157.921 26.0689 155.278 23.4167C153.72 21.8549 151.087 21.5001 147.447 22.3654C143.282 23.3547 140.813 23.4643 137.662 22.8024C137.266 22.7014 136.874 22.599 136.482 22.4981C136.46 22.4923 136.441 22.4865 136.421 22.4822C134.004 21.7251 132.48 20.7877 132.354 18.4571C132.252 16.5333 130.833 16.3602 129.192 16.1598C129.062 16.1439 128.908 16.1353 128.73 16.1353C126.716 16.1353 121.775 17.1981 117.003 20.0998ZM55.7599 43.6574C55.5825 44.0929 55.5464 44.4347 55.7382 44.6294C57.5049 46.4422 75.0329 31.6096 76.3481 27.1879C76.3092 27.1302 76.263 27.0624 76.2183 26.9946C68.8576 31.8735 62.0044 37.459 55.7599 43.6574ZM74.0838 36.1467C73.9728 36.2404 63.1667 45.5149 68.2979 48.7108C69.8641 49.028 71.2673 48.7382 73.8589 47.5642C75.7567 46.7047 80.2015 44.6915 84.1631 45.7961C88.0468 46.8806 88.902 50.238 89.3116 51.8518C90.1365 55.0938 92.8377 55.587 93.3727 55.6533C94.6389 55.8105 98.4953 56.2879 103.602 53.0834C110.157 48.9718 113.73 41.5649 110.956 37.8455C110.113 36.7192 107.882 35.0795 102.372 36.761C97.7396 38.1743 95.1769 38.4411 92.2161 37.8181C91.8325 37.7114 91.4532 37.6061 91.0768 37.5023C87.819 36.3442 87.943 34.8329 88.1478 32.3307C88.2718 30.8179 87.4152 30.1545 85.9773 30.1545C83.2199 30.153 78.3209 32.5917 74.0838 36.1467ZM120.748 48.891C115.775 54.7966 117.347 61.8084 124.046 63.6024C127.641 64.3379 131.095 63.464 134.548 62.5915C138.168 61.6771 141.786 60.7628 145.57 61.6973C151.598 63.1885 154.523 66.9886 155.928 68.8158C158.245 71.8299 160.879 72.8293 162.681 73.1351C163.831 73.3312 167.328 73.9268 171.102 71.6223C176.367 68.4034 179.517 59.6581 172.466 53.2823C172.068 52.9218 168.387 49.8197 162.141 51.9743C157.683 53.5102 154.706 53.7323 150.342 52.8482C149.752 52.7026 149.165 52.5584 148.578 52.4127C144.398 51.1854 142.164 49.6423 140.039 46.5143C138.033 43.5607 135.664 43.2608 133.371 42.9694C133.168 42.9435 132.938 42.9305 132.684 42.9305C129.936 42.9305 124.448 44.4953 120.748 48.891ZM48.2316 51.7695C42.8899 58.0241 38.1091 64.7807 33.9788 71.9511C33.7408 72.9303 33.735 73.735 34.0811 74.2326C34.8253 74.3523 35.6574 73.8475 37.3765 72.228C38.4249 71.2415 41.6121 68.239 44.1748 69.0639C46.6294 69.8527 46.8933 73.5418 47.0188 75.3128C47.2509 78.5533 48.9383 79.1085 49.6521 79.1965C50.5722 79.3104 52.4845 79.5455 56.0106 76.9395C60.1914 73.8461 67.5291 64.7028 65.5462 57.58C65.5375 57.5425 64.4833 54.0265 58.8199 57.0593C55.0184 59.0957 53.0672 59.6466 51.0842 59.2529C50.8333 59.1721 50.5881 59.0928 50.3458 59.0149C47.3274 57.5915 50.1987 54.2933 49.8569 51.9498C49.8007 51.5662 49.6017 51.3859 49.2858 51.3859C49.0147 51.3859 48.6585 51.5186 48.2316 51.7695ZM72.47 69.5631C67.4484 76.5878 68.3093 84.2904 74.3145 86.0455C76.9233 86.582 78.8183 86.3094 81.8166 84.9624C84.0231 83.9702 89.1932 81.6483 95.5748 83.3039C101.853 84.9293 104.721 89.1995 106.1 91.2488C108.368 94.6235 111.133 95.7281 113.054 96.0613C114.418 96.2992 118.042 96.9266 122.474 94.3985C128.871 90.7484 133.612 80.8624 126.482 73.6761C126.062 73.2507 122.155 69.6049 114.673 72.1142C109.42 73.8751 106.072 74.139 101.403 73.1584C100.803 73.0041 100.207 72.8483 99.6114 72.6954L99.5205 72.6723C95.7551 71.4999 93.1678 70.0346 91.0825 66.0053C89.3331 62.6306 87.1425 62.3782 84.8221 62.1114C84.6951 62.097 84.5538 62.0883 84.3995 62.0883C82.0574 62.0883 76.5816 63.8103 72.47 69.5631ZM143.038 87.6779C139.415 94.9623 143.248 103.439 151.079 105.463C154.428 106.116 156.617 105.875 159.763 104.508C162.273 103.418 167.493 101.148 174.465 102.802C181.43 104.453 185.116 108.836 186.887 110.941C189.209 113.705 191.806 115.33 194.605 115.777C195.837 115.973 199.585 116.57 203.352 113.79C208.753 109.804 211.096 99.319 202.474 91.9626C201.967 91.5314 197.341 87.8294 190.804 90.6646C186.194 92.6649 182.922 93.0081 177.841 92.0289C177.151 91.866 176.457 91.7016 175.762 91.5357C168.071 89.3638 163.876 81.0339 155.513 80.0475C155.309 80.0229 155.081 80.01 154.832 80.01C151.907 80.01 145.984 81.7507 143.038 87.6779ZM27.7674 84.648C27.5727 84.909 27.3896 85.1542 27.2165 85.3835C24.3134 92.065 21.9396 99.0248 20.147 106.221C20.1095 106.814 20.1023 107.097 20.1124 107.46C20.1744 109.86 21.0196 110.421 22.4358 109.002C24.9321 106.497 30.1729 95.2075 31.07 85.7108C31.1723 84.6321 31.0887 82.652 30.1095 82.652C29.6018 82.652 28.8548 83.1827 27.7674 84.648ZM34.2197 96.5457C30.7815 104.525 31.2704 113.008 35.2436 114.343C36.9799 114.682 38.2591 114.212 40.3142 112.483C41.7016 111.315 45.3863 108.213 50.1844 109.541C54.8988 110.848 57.2827 115.346 58.4263 117.507C60.4136 121.261 62.9431 122.173 64.2728 122.381C65.4381 122.564 68.5373 123.05 72.4152 120.165C77.0777 116.697 83.1709 106.064 76.1273 97.1932C76.0913 97.1485 72.408 92.6504 65.6544 95.9861C61.1375 98.2186 58.3946 98.719 54.7848 97.972C54.3017 97.8379 53.8229 97.7037 53.3513 97.5725C49.1792 96.0943 48.4235 94.0003 47.0534 90.1973C46.2689 88.0196 44.9911 87.0649 43.5028 87.0649C40.4945 87.0649 36.6237 90.9631 34.2197 96.5457ZM91.9522 112.314C88.3281 120.165 92.1383 129.531 99.7918 131.584C103.104 132.251 105.299 131.972 108.489 130.471C110.849 129.364 116.369 126.768 123.727 128.585C131.035 130.389 134.732 135.119 136.511 137.392C138.835 140.366 141.532 142.127 144.525 142.621C145.844 142.842 149.865 143.508 154.301 140.631C160.974 136.3 164.774 125.289 155.802 117.19C155.589 116.997 150.464 112.489 142.548 115.558C137.122 117.66 133.458 118.001 128.025 116.909C127.284 116.727 126.544 116.544 125.804 116.361C120.497 114.799 117.549 112.823 114.115 108.534C110.859 104.466 107.853 104.107 104.948 103.761C104.749 103.736 104.525 103.723 104.28 103.723C101.241 103.723 95.0125 105.679 91.9522 112.314ZM17.5469 119.509C16.647 125.778 16.1812 132.182 16.1812 138.7C16.1812 141.566 16.272 144.413 16.4494 147.235C17.0623 147.264 17.5022 146.631 18.141 144.838C19.7217 140.4 21.7537 140.435 23.1785 141.246C27.7545 143.852 28.1136 155.344 34.3942 151.742C39.1158 149.033 41.7247 136.215 37.8972 127.842C37.5741 127.135 34.6091 121.065 30.134 125.764C27.5396 128.49 25.9777 129.277 23.9457 128.883C23.6732 128.797 23.4064 128.71 23.1453 128.628C19.1087 126.765 20.9201 122.196 18.8794 119.41C18.6876 119.147 18.4872 119.022 18.2795 119.022C18.0401 119.022 17.7935 119.191 17.5469 119.509ZM175.282 132.763C172.426 140.113 175.696 149.934 184.341 152.076C187.743 152.699 189.956 152.382 193.102 150.82C195.628 149.567 200.878 146.959 207.782 148.53C214.73 150.11 218.131 154.823 219.585 156.838C221.631 159.676 223.991 161.301 226.592 161.666C227.731 161.826 231.196 162.312 235.014 159.192C240.593 154.632 243.607 143.185 235.636 135.625C235.156 135.17 230.741 131.26 224.192 134.66C219.605 137.043 216.333 137.542 211.23 136.632C210.532 136.473 209.831 136.313 209.131 136.155C200.938 133.887 196.677 124.767 187.701 123.869C187.539 123.853 187.358 123.844 187.166 123.844C184.178 123.844 177.942 125.905 175.282 132.763ZM48.8072 140.532C46.931 148.482 50.6748 157.314 56.6612 159.059C59.2196 159.585 60.8665 159.255 63.1927 157.747C64.7921 156.711 69.0392 153.958 75.6818 155.674C82.1975 157.357 86.1303 162.098 87.8104 164.122C90.1553 166.948 92.7325 168.62 95.4711 169.095C96.8181 169.327 100.39 169.944 104.245 167.279C110.937 162.653 112.578 151.231 104.581 143.988C104.027 143.489 98.9799 139.196 91.8138 142.389C86.8427 144.601 83.4825 144.998 78.4926 143.958C77.8451 143.791 77.1975 143.624 76.5529 143.456C76.5197 143.448 76.4866 143.439 76.4548 143.43C72.3158 142.142 69.2397 140.457 65.7612 135.641C62.7933 131.535 60.4584 131.29 57.9851 131.031C57.8827 131.019 57.7731 131.013 57.6592 131.013C55.183 131.013 50.4354 133.632 48.8072 140.532ZM124.053 159.845C121.149 167.581 125.686 176.479 133.573 178.514C136.914 179.168 139.095 178.928 142.211 177.563C144.558 176.535 150.05 174.127 157.305 175.849C164.548 177.568 168.165 182.135 169.708 184.085C171.851 186.793 174.366 188.397 177.181 188.848C178.425 189.049 182.211 189.654 186.548 187.012C194.035 182.448 196.801 171.303 189.001 164.306C188.128 163.521 183.387 159.767 175.886 162.874C170.544 165.086 166.88 165.475 161.362 164.417C160.609 164.239 159.858 164.062 159.106 163.882C150.587 161.467 146.078 152.093 136.783 151.022C136.568 150.997 136.335 150.984 136.088 150.984C132.706 150.984 126.492 153.351 124.053 159.845ZM23.1886 181.563C23.4943 177.507 21.9714 166.841 19.2486 159.708C18.7295 158.347 18.0026 156.992 17.3753 156.655C18.5261 165.242 20.4918 173.573 23.1886 181.563ZM26.5603 170.637C27.2223 178.209 31.093 186.193 34.6782 187.387C36.1146 187.676 36.9021 187.237 37.7991 185.654C40.1743 181.459 43.9412 182.331 46.6828 183.804C49.8858 185.523 52.2726 188.365 53.6974 190.063C59.0161 196.407 63.269 194.282 64.4458 193.481C70.226 189.542 68.8877 177.892 63.7017 172.395C58.559 166.942 54.73 167.84 52.424 169.555C49.3407 171.847 47.1919 172.386 43.9023 171.7C43.448 171.574 42.9995 171.45 42.5553 171.326C37.7544 169.655 36.0584 164.679 32.4025 161.791C31.5617 161.126 30.7714 160.813 30.0605 160.813C27.5713 160.811 26.0368 164.645 26.5603 170.637ZM79.9073 185.207C78.68 192.319 83.7997 200.485 90.6456 202.338C93.4852 202.921 95.2504 202.693 97.6386 201.443C99.2856 200.58 103.655 198.289 110.322 199.934C116.933 201.564 120.647 205.736 122.232 207.517C124.432 209.989 126.855 211.467 129.432 211.907C130.573 212.103 134.043 212.699 137.824 210.426C144.525 206.401 146.379 196.337 138.633 189.881C138.083 189.422 133.052 185.479 125.993 188.281C121.123 190.212 117.77 190.517 112.706 189.49C112.01 189.32 111.315 189.147 110.619 188.975C102.623 186.64 98.2198 178.005 89.5005 176.936C89.3087 176.911 89.1025 176.9 88.8861 176.9C85.9514 176.9 80.9557 179.118 79.9073 185.207ZM35.5189 197.543C34.7964 199.976 34.0725 200.658 32.5394 200.355C32.3174 200.285 32.1025 200.215 31.889 200.146C31.5458 199.996 31.1723 199.806 30.7425 199.486C32.7385 203.4 34.9248 207.204 37.2842 210.883C37.4933 210.988 37.7269 211.127 37.9908 211.303C39.8267 212.53 41.9524 214.946 43.2201 216.389C46.0539 219.614 47.5379 219.992 48.2835 219.744C51.1909 218.77 47.9561 206.764 41.8572 199.253C40.5319 197.621 38.6268 195.978 37.2034 195.978C36.4621 195.978 35.8506 196.423 35.5189 197.543ZM54.208 209.914C55.5608 216.244 61.1751 223.49 65.7583 224.823C67.6158 225.211 68.5647 224.943 69.6665 223.723C70.4236 222.882 72.4398 220.652 77.6431 221.992C82.6878 223.291 86.4936 226.943 88.1189 228.502C89.0044 229.35 91.3537 231.603 94.4442 232.243C96.1619 232.596 97.6689 232.423 99.0491 231.706C105.34 228.443 103.311 218.251 98.5659 214.184C96.72 212.602 91.8195 208.403 86.4619 211.275C83.0743 213.092 80.7034 213.405 76.71 212.562C76.1836 212.426 75.6601 212.292 75.1366 212.154C75.1107 212.148 75.0833 212.142 75.0573 212.135C69.8699 210.543 66.5327 206.242 62.2192 203.371C60.7222 202.373 59.2498 201.875 57.9692 201.874C55.0012 201.874 53.0615 204.553 54.208 209.914ZM49.6393 227.25C54.6753 232.958 60.1886 238.232 66.1188 243.013C66.9437 242.592 68.6137 243.307 69.3175 243.647C71.6567 244.781 74.0911 246.735 75.5448 247.905C79.4184 251.015 81.11 251.047 81.8456 250.525C84.3073 248.783 79.8813 239.329 74.5612 234.961C69.0449 230.436 67.2783 232.078 66.7735 232.997C65.7857 234.795 64.7877 235.231 62.6663 234.784C62.3591 234.699 62.0534 234.615 61.7519 234.531C59.7949 233.864 57.9879 232.841 54.5469 229.604C51.5876 226.82 50.8074 226.79 49.9032 226.754C49.782 226.892 49.6941 227.058 49.6393 227.25Z" fill="url(#paint0_linear_2217_37306)"/>
</g>
<defs>
<linearGradient id="paint0_linear_2217_37306" x1="16.1812" y1="250.778" x2="240.495" y2="250.778" gradientUnits="userSpaceOnUse">
<stop stop-color="#F14C4F"/>
<stop offset="0.452782" stop-color="#DC02A5"/>
<stop offset="0.75132" stop-color="#754FF7"/>
<stop offset="1" stop-color="#3786F8"/>
</linearGradient>
</defs>
</svg>
