<svg width="222" height="56" viewBox="0 0 222 56" fill="none" xmlns="http://www.w3.org/2000/svg">
<path d="M70.6395 38.8282C70.8617 38.8282 71.0492 38.7518 71.202 38.5991C71.3548 38.4463 71.4312 38.2588 71.4312 38.0365V14.6606H77.8064C78.0287 14.6606 78.2162 14.5842 78.3689 14.4314C78.5217 14.2786 78.5981 14.0911 78.5981 13.8689V10.4521C78.5981 10.2299 78.5217 10.0423 78.3689 9.88957C78.2162 9.73678 78.0287 9.66039 77.8064 9.66039H59.5974C59.3751 9.66039 59.1876 9.73678 59.0348 9.88957C58.8821 10.0423 58.8057 10.2299 58.8057 10.4521V13.8689C58.8057 14.0911 58.8821 14.2786 59.0348 14.4314C59.1876 14.5842 59.3751 14.6606 59.5974 14.6606H65.9726V38.0365C65.9726 38.2588 66.049 38.4463 66.2018 38.5991C66.3546 38.7518 66.5421 38.8282 66.7643 38.8282H70.6395ZM88.7494 38.8282C88.9717 38.8282 89.1592 38.7518 89.3119 38.5991C89.4647 38.4463 89.5411 38.2588 89.5411 38.0365V27.4111H94.1663L99.7082 38.4532C99.7638 38.5366 99.8401 38.6199 99.9374 38.7032C100.035 38.7866 100.18 38.8282 100.375 38.8282H104.75C105.111 38.8282 105.354 38.6963 105.479 38.4324C105.604 38.1685 105.597 37.8976 105.458 37.6199L99.7499 27.0361C100.667 26.675 101.5 26.2097 102.25 25.6402C103 25.0707 103.646 24.4249 104.188 23.7026C104.729 22.9804 105.153 22.1956 105.458 21.3484C105.764 20.5011 105.917 19.5913 105.917 18.6191C105.917 17.369 105.681 16.2023 105.208 15.1189C104.736 14.0356 104.083 13.0911 103.25 12.2855C102.417 11.4799 101.451 10.841 100.354 10.3688C99.2568 9.89651 98.0831 9.66039 96.8331 9.66039H84.9159C84.6937 9.66039 84.5062 9.73678 84.3534 9.88957C84.2006 10.0423 84.1242 10.2299 84.1242 10.4521V38.0365C84.1242 38.2588 84.2006 38.4463 84.3534 38.5991C84.5062 38.7518 84.6937 38.8282 84.9159 38.8282H88.7494ZM96.3747 22.9526H89.5828V14.6606H96.3747C96.9303 14.6606 97.4581 14.7648 97.9581 14.9731C98.4581 15.1814 98.8957 15.4731 99.2707 15.8481C99.6457 16.2232 99.9443 16.6537 100.167 17.1399C100.389 17.626 100.5 18.1468 100.5 18.7024C100.5 19.2858 100.389 19.8344 100.167 20.3483C99.9443 20.8622 99.6457 21.3136 99.2707 21.7025C98.8957 22.0914 98.4581 22.397 97.9581 22.6192C97.4581 22.8415 96.9303 22.9526 96.3747 22.9526ZM113.401 38.8282C113.735 38.8282 113.999 38.7449 114.193 38.5782C114.387 38.4115 114.526 38.2171 114.61 37.9949L116.651 33.4947H129.11L131.152 37.9949C131.291 38.3004 131.451 38.5157 131.631 38.6407C131.812 38.7657 132.055 38.8282 132.36 38.8282H135.986C136.291 38.8282 136.52 38.7171 136.673 38.4949C136.826 38.2727 136.833 38.0226 136.694 37.7449L123.86 9.70206C123.804 9.56316 123.728 9.45205 123.631 9.36871C123.534 9.28537 123.374 9.24371 123.152 9.24371H122.735C122.402 9.24371 122.166 9.39649 122.027 9.70206L109.068 37.7449C108.929 38.0226 108.936 38.2727 109.089 38.4949C109.241 38.7171 109.471 38.8282 109.776 38.8282H113.401ZM127.069 28.8695H118.693L122.777 19.7025H122.902L127.069 28.8695ZM156.346 39.2449C156.707 39.2449 156.943 39.0921 157.054 38.7866L164.346 22.4109H164.471L166.929 38.2032C166.985 38.3421 167.082 38.481 167.221 38.6199C167.36 38.7588 167.527 38.8282 167.721 38.8282H171.513C171.791 38.8282 171.999 38.7449 172.138 38.5782C172.277 38.4115 172.318 38.1754 172.263 37.8699L167.346 9.86873C167.318 9.70206 167.242 9.55622 167.117 9.43121C166.992 9.30621 166.818 9.24371 166.596 9.24371H165.929C165.596 9.24371 165.36 9.3826 165.221 9.66039L156.054 29.3279H155.929L146.762 9.66039C146.623 9.3826 146.387 9.24371 146.054 9.24371H145.387C145.165 9.24371 144.991 9.30621 144.866 9.43121C144.741 9.55622 144.665 9.70206 144.637 9.86873L139.678 37.8699C139.595 38.5088 139.859 38.8282 140.47 38.8282H144.22C144.415 38.8282 144.581 38.7588 144.72 38.6199C144.859 38.481 144.942 38.3421 144.97 38.2032L147.387 22.4109H147.512L154.887 38.7866C155.026 39.0921 155.262 39.2449 155.596 39.2449H156.346ZM184.602 6.93111C184.755 7.00056 184.984 6.96584 185.289 6.82694L192.581 3.61848C192.776 3.53514 192.901 3.3893 192.956 3.18096C193.012 2.97262 192.97 2.74344 192.831 2.49343L191.665 0.32668C191.442 -0.0622247 191.081 -0.103893 190.581 0.201675L183.748 4.28517C183.636 4.34073 183.546 4.4449 183.477 4.59769C183.407 4.75047 183.414 4.9102 183.498 5.07687L184.248 6.53526C184.331 6.72972 184.449 6.86167 184.602 6.93111ZM196.415 38.8282C196.637 38.8282 196.825 38.7518 196.977 38.5991C197.13 38.4463 197.206 38.2588 197.206 38.0365V34.6197C197.206 34.3975 197.13 34.21 196.977 34.0572C196.825 33.9044 196.637 33.828 196.415 33.828H184.081V26.5361H194.373C194.595 26.5361 194.783 26.4597 194.936 26.3069C195.088 26.1541 195.165 25.9666 195.165 25.7444V22.2859C195.165 22.0637 195.088 21.8762 194.936 21.7234C194.783 21.5706 194.595 21.4942 194.373 21.4942H184.081V14.6606H196.415C196.637 14.6606 196.825 14.5842 196.977 14.4314C197.13 14.2786 197.206 14.0911 197.206 13.8689V10.4521C197.206 10.2299 197.13 10.0423 196.977 9.88957C196.825 9.73678 196.637 9.66039 196.415 9.66039H179.456C179.234 9.66039 179.046 9.73678 178.893 9.88957C178.74 10.0423 178.664 10.2299 178.664 10.4521V38.0365C178.664 38.2588 178.74 38.4463 178.893 38.5991C179.046 38.7518 179.234 38.8282 179.456 38.8282H196.415ZM211.525 39.2449C212.997 39.2449 214.323 39.0157 215.504 38.5574C216.685 38.099 217.692 37.4879 218.525 36.724C219.358 35.9601 219.997 35.085 220.442 34.0989C220.886 33.1127 221.108 32.078 221.108 30.9946C221.108 29.6612 220.844 28.4945 220.317 27.4944C219.789 26.4944 219.108 25.6263 218.275 24.8902C217.442 24.154 216.504 23.5221 215.462 22.9943C214.421 22.4665 213.4 21.9942 212.4 21.5775C210.705 20.8831 209.462 20.1747 208.67 19.4525C207.879 18.7302 207.483 17.8829 207.483 16.9107C207.483 16.1051 207.795 15.4176 208.42 14.8481C209.045 14.2786 209.955 13.9939 211.15 13.9939C212.316 13.9939 213.351 14.237 214.254 14.7231C215.157 15.2092 216.053 15.7301 216.941 16.2857C217.191 16.4523 217.455 16.4732 217.733 16.3482C218.011 16.2232 218.233 16.0356 218.4 15.7856L219.983 13.4105C220.122 13.1883 220.171 12.9383 220.129 12.6605C220.087 12.3827 219.955 12.1744 219.733 12.0355C219.511 11.8688 219.157 11.6327 218.671 11.3271C218.185 11.0216 217.58 10.716 216.858 10.4104C216.136 10.1049 215.309 9.83401 214.379 9.59789C213.448 9.36177 212.455 9.24371 211.4 9.24371C209.733 9.24371 208.309 9.48677 207.129 9.9729C205.948 10.459 204.983 11.0841 204.233 11.848C203.483 12.6119 202.927 13.473 202.566 14.4314C202.205 15.3898 202.024 16.3273 202.024 17.244C202.024 18.4663 202.246 19.5497 202.691 20.4942C203.135 21.4386 203.726 22.272 204.462 22.9943C205.198 23.7165 206.038 24.3415 206.983 24.8693C207.927 25.3971 208.886 25.8555 209.858 26.2444C211.608 26.9666 212.927 27.7167 213.816 28.4945C214.705 29.2723 215.15 30.189 215.15 31.2446C215.15 32.1335 214.789 32.8905 214.066 33.5155C213.344 34.1405 212.441 34.4531 211.358 34.4531C209.997 34.4531 208.823 34.1822 207.837 33.6405C206.851 33.0988 205.927 32.5085 205.066 31.8696C204.872 31.7307 204.628 31.6682 204.337 31.6821C204.045 31.696 203.816 31.8557 203.649 32.1613L202.149 34.7447C201.955 35.0781 201.885 35.3281 201.941 35.4948C201.996 35.6614 202.135 35.8281 202.358 35.9948C202.663 36.2448 203.066 36.5573 203.566 36.9323C204.066 37.3073 204.684 37.6685 205.42 38.0157C206.156 38.3629 207.031 38.6546 208.045 38.8907C209.059 39.1269 210.219 39.2449 211.525 39.2449Z" fill="#050D34"/>
<path d="M61.2874 55.9027C61.7546 55.9027 62.1958 55.8135 62.611 55.6351C63.0263 55.4566 63.3896 55.2133 63.7011 54.9051C64.0125 54.5969 64.2574 54.2352 64.4359 53.82C64.6143 53.4047 64.7035 52.9603 64.7035 52.4866C64.7035 52.0195 64.6143 51.5799 64.4359 51.1679C64.2574 50.7559 64.0125 50.3958 63.7011 50.0876C63.3896 49.7794 63.0263 49.5361 62.611 49.3576C62.1958 49.1792 61.7546 49.09 61.2874 49.09H58.9808C58.9289 49.09 58.8868 49.1078 58.8543 49.1435C58.8219 49.1792 58.8057 49.223 58.8057 49.2749V55.7178C58.8057 55.7697 58.8219 55.8135 58.8543 55.8492C58.8868 55.8849 58.9289 55.9027 58.9808 55.9027H61.2874ZM61.1706 54.7153H60.0611V50.2676H61.1706C61.4886 50.2676 61.7805 50.3212 62.0466 50.4282C62.3126 50.5353 62.5429 50.6861 62.7376 50.8808C62.9322 51.0754 63.0847 51.309 63.195 51.5815C63.3053 51.854 63.3604 52.1557 63.3604 52.4866C63.3604 52.8175 63.3053 53.1208 63.195 53.3966C63.0847 53.6724 62.9322 53.9076 62.7376 54.1022C62.5429 54.2968 62.3126 54.4477 62.0466 54.5548C61.7805 54.6618 61.4886 54.7153 61.1706 54.7153ZM67.9083 55.9027C67.9602 55.9027 68.004 55.8849 68.0397 55.8492C68.0754 55.8135 68.0932 55.7697 68.0932 55.7178V49.2749C68.0932 49.223 68.0754 49.1792 68.0397 49.1435C68.004 49.1078 67.9602 49.09 67.9083 49.09H67.0032C66.9513 49.09 66.9075 49.1078 66.8718 49.1435C66.8361 49.1792 66.8183 49.223 66.8183 49.2749V55.7178C66.8183 55.7697 66.8361 55.8135 66.8718 55.8492C66.9075 55.8849 66.9513 55.9027 67.0032 55.9027H67.9083ZM73.7019 55.9903C74.0523 55.9903 74.3751 55.9579 74.6703 55.893C74.9655 55.8281 75.2201 55.7567 75.4343 55.6789C75.6873 55.588 75.9144 55.481 76.1155 55.3577C76.1674 55.3188 76.1934 55.2668 76.1934 55.202V52.7105C76.1934 52.6586 76.1772 52.6148 76.1447 52.5791C76.1123 52.5434 76.0701 52.5255 76.0182 52.5255H74.1496C74.0263 52.5255 73.9647 52.5872 73.9647 52.7105V53.4793C73.9647 53.5312 73.9825 53.5734 74.0182 53.6058C74.0539 53.6383 74.0977 53.6545 74.1496 53.6545H74.9282V54.4818C74.8309 54.5207 74.6816 54.571 74.4805 54.6326C74.2794 54.6943 74.0425 54.7251 73.77 54.7251C73.4651 54.7251 73.1796 54.6651 72.9136 54.545C72.6476 54.425 72.4156 54.2644 72.2177 54.0633C72.0198 53.8621 71.8641 53.6269 71.7505 53.3577C71.637 53.0884 71.5802 52.8013 71.5802 52.4963C71.5802 52.1914 71.637 51.9027 71.7505 51.6302C71.8641 51.3577 72.0182 51.1176 72.2128 50.91C72.4075 50.7023 72.6378 50.5385 72.9038 50.4185C73.1699 50.2984 73.4553 50.2384 73.7603 50.2384C74.3118 50.2384 74.8017 50.4266 75.2299 50.8029C75.3207 50.8808 75.4051 50.8808 75.4829 50.8029L76.0863 50.1703C76.1253 50.1314 76.1431 50.086 76.1399 50.034C76.1366 49.9821 76.1155 49.9367 76.0766 49.8978C75.7457 49.6123 75.3775 49.3901 74.972 49.2311C74.5665 49.0722 74.1431 48.9927 73.7019 48.9927C73.2153 48.9927 72.7611 49.0851 72.3394 49.2701C71.9176 49.455 71.5478 49.7048 71.2299 50.0194C70.9119 50.3341 70.6621 50.7056 70.4805 51.1338C70.2988 51.562 70.208 52.0195 70.208 52.5061C70.208 52.9927 70.2988 53.4485 70.4805 53.8735C70.6621 54.2985 70.9119 54.6667 71.2299 54.9781C71.5478 55.2896 71.9176 55.5361 72.3394 55.7178C72.7611 55.8995 73.2153 55.9903 73.7019 55.9903ZM79.5442 55.9027C79.5961 55.9027 79.6399 55.8849 79.6755 55.8492C79.7112 55.8135 79.7291 55.7697 79.7291 55.7178V49.2749C79.7291 49.223 79.7112 49.1792 79.6755 49.1435C79.6399 49.1078 79.5961 49.09 79.5442 49.09H78.639C78.5871 49.09 78.5433 49.1078 78.5077 49.1435C78.472 49.1792 78.4541 49.223 78.4541 49.2749V55.7178C78.4541 55.7697 78.472 55.8135 78.5077 55.8492C78.5433 55.8849 78.5871 55.9027 78.639 55.9027H79.5442ZM84.4326 55.9027C84.4846 55.9027 84.5283 55.8849 84.564 55.8492C84.5997 55.8135 84.6176 55.7697 84.6176 55.7178V50.2579H86.1066C86.1585 50.2579 86.2023 50.24 86.238 50.2044C86.2737 50.1687 86.2915 50.1249 86.2915 50.073V49.2749C86.2915 49.223 86.2737 49.1792 86.238 49.1435C86.2023 49.1078 86.1585 49.09 86.1066 49.09H81.8536C81.8016 49.09 81.7578 49.1078 81.7222 49.1435C81.6865 49.1792 81.6686 49.223 81.6686 49.2749V50.073C81.6686 50.1249 81.6865 50.1687 81.7222 50.2044C81.7578 50.24 81.8016 50.2579 81.8536 50.2579H83.3426V55.7178C83.3426 55.7697 83.3605 55.8135 83.3961 55.8492C83.4318 55.8849 83.4756 55.9027 83.5275 55.9027H84.4326ZM88.0073 55.9027C88.0851 55.9027 88.1467 55.8832 88.1922 55.8443C88.2376 55.8054 88.27 55.76 88.2895 55.7081L88.7664 54.6569H91.6764L92.1533 55.7081C92.1857 55.7794 92.223 55.8297 92.2652 55.8589C92.3074 55.8881 92.3641 55.9027 92.4355 55.9027H93.2822C93.3536 55.9027 93.4071 55.8767 93.4428 55.8248C93.4785 55.7729 93.4801 55.7145 93.4477 55.6497L90.4501 49.0997C90.4371 49.0673 90.4193 49.0413 90.3966 49.0219C90.3738 49.0024 90.3365 48.9927 90.2846 48.9927H90.1873C90.1095 48.9927 90.0543 49.0284 90.0219 49.0997L86.9951 55.6497C86.9626 55.7145 86.9643 55.7729 86.9999 55.8248C87.0356 55.8767 87.0892 55.9027 87.1605 55.9027H88.0073ZM91.1995 53.5766H89.2433L90.1971 51.4355H90.2262L91.1995 53.5766ZM98.9104 55.9027C98.9623 55.9027 99.0061 55.8849 99.0418 55.8492C99.0775 55.8135 99.0953 55.7697 99.0953 55.7178V54.9197C99.0953 54.8678 99.0775 54.824 99.0418 54.7883C99.0061 54.7526 98.9623 54.7348 98.9104 54.7348H96.4286V49.2749C96.4286 49.223 96.4108 49.1792 96.3751 49.1435C96.3394 49.1078 96.2956 49.09 96.2437 49.09H95.3483C95.2964 49.09 95.2526 49.1078 95.2169 49.1435C95.1812 49.1792 95.1634 49.223 95.1634 49.2749V55.7178C95.1634 55.7697 95.1812 55.8135 95.2169 55.8492C95.2526 55.8849 95.2964 55.9027 95.3483 55.9027H98.9104ZM105.213 55.9027C105.265 55.9027 105.309 55.8849 105.344 55.8492C105.38 55.8135 105.398 55.7697 105.398 55.7178V53.2555H107.802C107.854 53.2555 107.897 53.2376 107.933 53.2019C107.969 53.1663 107.987 53.1225 107.987 53.0706V52.2725C107.987 52.2206 107.969 52.1768 107.933 52.1411C107.897 52.1054 107.854 52.0876 107.802 52.0876H105.398V50.2579H108.279C108.33 50.2579 108.374 50.24 108.41 50.2044C108.446 50.1687 108.464 50.1249 108.464 50.073V49.2749C108.464 49.223 108.446 49.1792 108.41 49.1435C108.374 49.1078 108.33 49.09 108.279 49.09H104.317C104.266 49.09 104.222 49.1078 104.186 49.1435C104.15 49.1792 104.133 49.223 104.133 49.2749V55.7178C104.133 55.7697 104.15 55.8135 104.186 55.8492C104.222 55.8849 104.266 55.9027 104.317 55.9027H105.213ZM111.493 55.9027C111.545 55.9027 111.589 55.8849 111.624 55.8492C111.66 55.8135 111.678 55.7697 111.678 55.7178V53.236H112.758L114.053 55.8151C114.066 55.8346 114.084 55.854 114.106 55.8735C114.129 55.893 114.163 55.9027 114.208 55.9027H115.23C115.315 55.9027 115.371 55.8719 115.401 55.8102C115.43 55.7486 115.428 55.6853 115.396 55.6205L114.062 53.1484C114.277 53.0641 114.471 52.9554 114.646 52.8224C114.822 52.6894 114.972 52.5385 115.099 52.3698C115.225 52.2011 115.324 52.0178 115.396 51.8199C115.467 51.6221 115.503 51.4096 115.503 51.1825C115.503 50.8905 115.448 50.618 115.337 50.365C115.227 50.1119 115.075 49.8913 114.88 49.7031C114.685 49.515 114.46 49.3658 114.204 49.2555C113.947 49.1452 113.673 49.09 113.381 49.09H110.598C110.546 49.09 110.502 49.1078 110.466 49.1435C110.431 49.1792 110.413 49.223 110.413 49.2749V55.7178C110.413 55.7697 110.431 55.8135 110.466 55.8492C110.502 55.8849 110.546 55.9027 110.598 55.9027H111.493ZM113.274 52.1946H111.688V50.2579H113.274C113.404 50.2579 113.527 50.2822 113.644 50.3309C113.761 50.3795 113.863 50.4477 113.951 50.5353C114.038 50.6229 114.108 50.7234 114.16 50.837C114.212 50.9505 114.238 51.0722 114.238 51.2019C114.238 51.3382 114.212 51.4663 114.16 51.5864C114.108 51.7064 114.038 51.8118 113.951 51.9027C113.863 51.9935 113.761 52.0649 113.644 52.1168C113.527 52.1687 113.404 52.1946 113.274 52.1946ZM121.841 55.9027C121.893 55.9027 121.937 55.8849 121.973 55.8492C122.009 55.8135 122.026 55.7697 122.026 55.7178V54.9197C122.026 54.8678 122.009 54.824 121.973 54.7883C121.937 54.7526 121.893 54.7348 121.841 54.7348H118.961V53.0316H121.365C121.416 53.0316 121.46 53.0138 121.496 52.9781C121.532 52.9424 121.549 52.8986 121.549 52.8467V52.0389C121.549 51.987 121.532 51.9432 121.496 51.9075C121.46 51.8719 121.416 51.854 121.365 51.854H118.961V50.2579H121.841C121.893 50.2579 121.937 50.24 121.973 50.2044C122.009 50.1687 122.026 50.1249 122.026 50.073V49.2749C122.026 49.223 122.009 49.1792 121.973 49.1435C121.937 49.1078 121.893 49.09 121.841 49.09H117.88C117.828 49.09 117.785 49.1078 117.749 49.1435C117.713 49.1792 117.695 49.223 117.695 49.2749V55.7178C117.695 55.7697 117.713 55.8135 117.749 55.8492C117.785 55.8849 117.828 55.9027 117.88 55.9027H121.841ZM125.251 55.9027C125.303 55.9027 125.346 55.8849 125.382 55.8492C125.418 55.8135 125.436 55.7697 125.436 55.7178V49.2749C125.436 49.223 125.418 49.1792 125.382 49.1435C125.346 49.1078 125.303 49.09 125.251 49.09H124.346C124.294 49.09 124.25 49.1078 124.214 49.1435C124.178 49.1792 124.161 49.223 124.161 49.2749V55.7178C124.161 55.7697 124.178 55.8135 124.214 55.8492C124.25 55.8849 124.294 55.9027 124.346 55.9027H125.251ZM131.044 55.9903C131.395 55.9903 131.717 55.9579 132.013 55.893C132.308 55.8281 132.562 55.7567 132.777 55.6789C133.03 55.588 133.257 55.481 133.458 55.3577C133.51 55.3188 133.536 55.2668 133.536 55.202V52.7105C133.536 52.6586 133.52 52.6148 133.487 52.5791C133.455 52.5434 133.412 52.5255 133.361 52.5255H131.492C131.369 52.5255 131.307 52.5872 131.307 52.7105V53.4793C131.307 53.5312 131.325 53.5734 131.361 53.6058C131.396 53.6383 131.44 53.6545 131.492 53.6545H132.271V54.4818C132.173 54.5207 132.024 54.571 131.823 54.6326C131.622 54.6943 131.385 54.7251 131.112 54.7251C130.807 54.7251 130.522 54.6651 130.256 54.545C129.99 54.425 129.758 54.2644 129.56 54.0633C129.362 53.8621 129.206 53.6269 129.093 53.3577C128.979 53.0884 128.923 52.8013 128.923 52.4963C128.923 52.1914 128.979 51.9027 129.093 51.6302C129.206 51.3577 129.361 51.1176 129.555 50.91C129.75 50.7023 129.98 50.5385 130.246 50.4185C130.512 50.2984 130.798 50.2384 131.103 50.2384C131.654 50.2384 132.144 50.4266 132.572 50.8029C132.663 50.8808 132.747 50.8808 132.825 50.8029L133.429 50.1703C133.468 50.1314 133.485 50.086 133.482 50.034C133.479 49.9821 133.458 49.9367 133.419 49.8978C133.088 49.6123 132.72 49.3901 132.314 49.2311C131.909 49.0722 131.485 48.9927 131.044 48.9927C130.558 48.9927 130.103 49.0851 129.682 49.2701C129.26 49.455 128.89 49.7048 128.572 50.0194C128.254 50.3341 128.004 50.7056 127.823 51.1338C127.641 51.562 127.55 52.0195 127.55 52.5061C127.55 52.9927 127.641 53.4485 127.823 53.8735C128.004 54.2985 128.254 54.6667 128.572 54.9781C128.89 55.2896 129.26 55.5361 129.682 55.7178C130.103 55.8995 130.558 55.9903 131.044 55.9903ZM136.886 55.9027C136.938 55.9027 136.982 55.8849 137.018 55.8492C137.054 55.8135 137.071 55.7697 137.071 55.7178V53.0316H140.244V55.7178C140.244 55.7697 140.262 55.8135 140.298 55.8492C140.333 55.8849 140.377 55.9027 140.429 55.9027H141.324C141.376 55.9027 141.42 55.8849 141.456 55.8492C141.492 55.8135 141.509 55.7697 141.509 55.7178V49.2749C141.509 49.223 141.492 49.1792 141.456 49.1435C141.42 49.1078 141.376 49.09 141.324 49.09H140.429C140.377 49.09 140.333 49.1078 140.298 49.1435C140.262 49.1792 140.244 49.223 140.244 49.2749V51.854H137.071V49.2749C137.071 49.223 137.054 49.1792 137.018 49.1435C136.982 49.1078 136.938 49.09 136.886 49.09H135.981C135.929 49.09 135.886 49.1078 135.85 49.1435C135.814 49.1792 135.796 49.223 135.796 49.2749V55.7178C135.796 55.7697 135.814 55.8135 135.85 55.8492C135.886 55.8849 135.929 55.9027 135.981 55.9027H136.886ZM146.213 55.9027C146.265 55.9027 146.309 55.8849 146.344 55.8492C146.38 55.8135 146.398 55.7697 146.398 55.7178V50.2579H147.887C147.939 50.2579 147.983 50.24 148.018 50.2044C148.054 50.1687 148.072 50.1249 148.072 50.073V49.2749C148.072 49.223 148.054 49.1792 148.018 49.1435C147.983 49.1078 147.939 49.09 147.887 49.09H143.634C143.582 49.09 143.538 49.1078 143.502 49.1435C143.467 49.1792 143.449 49.223 143.449 49.2749V50.073C143.449 50.1249 143.467 50.1687 143.502 50.2044C143.538 50.24 143.582 50.2579 143.634 50.2579H145.123V55.7178C145.123 55.7697 145.141 55.8135 145.176 55.8492C145.212 55.8849 145.256 55.9027 145.308 55.9027H146.213ZM157.352 55.9027C157.404 55.9027 157.448 55.8849 157.484 55.8492C157.52 55.8135 157.537 55.7697 157.537 55.7178V54.9197C157.537 54.8678 157.52 54.824 157.484 54.7883C157.448 54.7526 157.404 54.7348 157.352 54.7348H154.472V53.0316H156.876C156.927 53.0316 156.971 53.0138 157.007 52.9781C157.043 52.9424 157.061 52.8986 157.061 52.8467V52.0389C157.061 51.987 157.043 51.9432 157.007 51.9075C156.971 51.8719 156.927 51.854 156.876 51.854H154.472V50.2579H157.352C157.404 50.2579 157.448 50.24 157.484 50.2044C157.52 50.1687 157.537 50.1249 157.537 50.073V49.2749C157.537 49.223 157.52 49.1792 157.484 49.1435C157.448 49.1078 157.404 49.09 157.352 49.09H153.391C153.339 49.09 153.296 49.1078 153.26 49.1435C153.224 49.1792 153.206 49.223 153.206 49.2749V55.7178C153.206 55.7697 153.224 55.8135 153.26 55.8492C153.296 55.8849 153.339 55.9027 153.391 55.9027H157.352ZM162.786 56C163.221 56 163.641 55.9238 164.046 55.7713C164.452 55.6188 164.82 55.3804 165.151 55.056C165.183 55.0235 165.203 54.9797 165.209 54.9246C165.216 54.8694 165.2 54.8256 165.161 54.7932L164.557 54.1703C164.525 54.1379 164.486 54.1217 164.441 54.1217C164.395 54.1217 164.353 54.1379 164.314 54.1703C164.106 54.339 163.879 54.4737 163.633 54.5742C163.386 54.6748 163.117 54.7251 162.825 54.7251C162.513 54.7251 162.225 54.6651 161.959 54.545C161.693 54.425 161.462 54.2628 161.268 54.0584C161.073 53.854 160.921 53.6156 160.81 53.3431C160.7 53.0706 160.645 52.7818 160.645 52.4769C160.645 52.1719 160.7 51.8816 160.81 51.6058C160.921 51.3301 161.071 51.0884 161.263 50.8808C161.454 50.6731 161.683 50.5093 161.949 50.3893C162.215 50.2692 162.504 50.2092 162.815 50.2092C163.088 50.2092 163.354 50.2595 163.613 50.3601C163.873 50.4607 164.106 50.6018 164.314 50.7834C164.398 50.8678 164.479 50.8678 164.557 50.7834L165.151 50.1703C165.242 50.0795 165.239 49.9886 165.141 49.8978C164.81 49.5993 164.458 49.3739 164.085 49.2214C163.712 49.0689 163.279 48.9927 162.786 48.9927C162.299 48.9927 161.842 49.0851 161.414 49.2701C160.985 49.455 160.614 49.7048 160.299 50.0194C159.985 50.3341 159.735 50.7056 159.55 51.1338C159.365 51.562 159.273 52.0195 159.273 52.5061C159.273 52.9927 159.365 53.4485 159.55 53.8735C159.735 54.2985 159.985 54.6683 160.299 54.983C160.614 55.2977 160.985 55.5458 161.414 55.7275C161.842 55.9092 162.299 56 162.786 56ZM170.166 56C170.653 56 171.108 55.9092 171.533 55.7275C171.958 55.5458 172.33 55.2977 172.648 54.983C172.966 54.6683 173.215 54.2985 173.397 53.8735C173.579 53.4485 173.67 52.9927 173.67 52.5061C173.67 52.0195 173.579 51.562 173.397 51.1338C173.215 50.7056 172.966 50.3341 172.648 50.0194C172.33 49.7048 171.958 49.455 171.533 49.2701C171.108 49.0851 170.653 48.9927 170.166 48.9927C169.679 48.9927 169.224 49.0851 168.799 49.2701C168.374 49.455 168.004 49.7048 167.689 50.0194C167.374 50.3341 167.126 50.7056 166.945 51.1338C166.763 51.562 166.672 52.0195 166.672 52.5061C166.672 52.9927 166.763 53.4485 166.945 53.8735C167.126 54.2985 167.374 54.6683 167.689 54.983C168.004 55.2977 168.374 55.5458 168.799 55.7275C169.224 55.9092 169.679 56 170.166 56ZM170.166 54.7348C169.861 54.7348 169.572 54.6764 169.3 54.5596C169.027 54.4428 168.79 54.2839 168.589 54.0827C168.388 53.8816 168.229 53.6448 168.112 53.3723C167.996 53.0998 167.937 52.811 167.937 52.5061C167.937 52.2011 167.996 51.9124 168.112 51.6399C168.229 51.3674 168.388 51.1289 168.589 50.9246C168.79 50.7202 169.027 50.558 169.3 50.4379C169.572 50.3179 169.861 50.2579 170.166 50.2579C170.471 50.2579 170.76 50.3179 171.032 50.4379C171.305 50.558 171.543 50.7202 171.747 50.9246C171.952 51.1289 172.112 51.3674 172.229 51.6399C172.346 51.9124 172.404 52.2011 172.404 52.5061C172.404 52.811 172.346 53.0998 172.229 53.3723C172.112 53.6448 171.952 53.8816 171.747 54.0827C171.543 54.2839 171.305 54.4428 171.032 54.5596C170.76 54.6764 170.471 54.7348 170.166 54.7348ZM177.643 56C177.987 56 178.297 55.9465 178.573 55.8394C178.848 55.7324 179.084 55.5896 179.278 55.4112C179.473 55.2328 179.622 55.0284 179.726 54.7981C179.83 54.5677 179.882 54.326 179.882 54.073C179.882 53.7616 179.82 53.4891 179.697 53.2555C179.574 53.0219 179.415 52.8191 179.22 52.6472C179.025 52.4753 178.806 52.3277 178.563 52.2044C178.32 52.0811 178.081 51.9708 177.848 51.8735C177.452 51.7113 177.162 51.5458 176.977 51.3771C176.792 51.2084 176.699 51.0105 176.699 50.7834C176.699 50.5953 176.772 50.4347 176.918 50.3017C177.064 50.1687 177.277 50.1022 177.556 50.1022C177.828 50.1022 178.07 50.1589 178.281 50.2725C178.492 50.386 178.701 50.5077 178.909 50.6375C178.967 50.6764 179.029 50.6813 179.093 50.6521C179.158 50.6229 179.21 50.5791 179.249 50.5207L179.619 49.9659C179.651 49.914 179.663 49.8556 179.653 49.7907C179.643 49.7259 179.612 49.6772 179.561 49.6448C179.509 49.6058 179.426 49.5507 179.312 49.4793C179.199 49.4079 179.058 49.3366 178.889 49.2652C178.72 49.1938 178.527 49.1306 178.31 49.0754C178.093 49.0203 177.861 48.9927 177.614 48.9927C177.225 48.9927 176.892 49.0494 176.617 49.163C176.341 49.2765 176.115 49.4225 175.94 49.601C175.765 49.7794 175.635 49.9805 175.551 50.2044C175.466 50.4282 175.424 50.6472 175.424 50.8613C175.424 51.1468 175.476 51.3998 175.58 51.6204C175.684 51.841 175.822 52.0357 175.994 52.2044C176.166 52.3731 176.362 52.5191 176.582 52.6423C176.803 52.7656 177.027 52.8727 177.254 52.9635C177.663 53.1322 177.971 53.3074 178.179 53.4891C178.386 53.6707 178.49 53.8848 178.49 54.1314C178.49 54.339 178.406 54.5158 178.237 54.6618C178.068 54.8078 177.857 54.8808 177.604 54.8808C177.286 54.8808 177.012 54.8175 176.782 54.691C176.552 54.5645 176.336 54.4266 176.135 54.2774C176.089 54.2449 176.033 54.2303 175.964 54.2336C175.896 54.2368 175.843 54.2741 175.804 54.3455L175.453 54.9489C175.408 55.0268 175.392 55.0852 175.405 55.1241C175.418 55.163 175.45 55.202 175.502 55.2409C175.574 55.2993 175.668 55.3723 175.784 55.4599C175.901 55.5475 176.046 55.6318 176.217 55.7129C176.389 55.794 176.594 55.8621 176.831 55.9173C177.067 55.9725 177.338 56 177.643 56ZM184.381 55.9027C184.433 55.9027 184.477 55.8849 184.512 55.8492C184.548 55.8135 184.566 55.7697 184.566 55.7178V52.6131L186.814 49.3722C186.853 49.3074 186.856 49.2441 186.824 49.1825C186.791 49.1208 186.736 49.09 186.658 49.09H185.656C185.617 49.09 185.585 49.0997 185.559 49.1192C185.533 49.1387 185.513 49.1581 185.5 49.1776L183.943 51.4161L182.386 49.1776C182.373 49.1581 182.353 49.1387 182.327 49.1192C182.301 49.0997 182.269 49.09 182.23 49.09H181.237C181.16 49.09 181.104 49.1208 181.072 49.1825C181.039 49.2441 181.043 49.3074 181.082 49.3722L183.301 52.6229V55.7178C183.301 55.7697 183.318 55.8135 183.354 55.8492C183.39 55.8849 183.434 55.9027 183.486 55.9027H184.381ZM190.291 56C190.635 56 190.945 55.9465 191.221 55.8394C191.497 55.7324 191.732 55.5896 191.926 55.4112C192.121 55.2328 192.27 55.0284 192.374 54.7981C192.478 54.5677 192.53 54.326 192.53 54.073C192.53 53.7616 192.468 53.4891 192.345 53.2555C192.222 53.0219 192.063 52.8191 191.868 52.6472C191.673 52.4753 191.454 52.3277 191.211 52.2044C190.968 52.0811 190.729 51.9708 190.496 51.8735C190.1 51.7113 189.81 51.5458 189.625 51.3771C189.44 51.2084 189.347 51.0105 189.347 50.7834C189.347 50.5953 189.42 50.4347 189.566 50.3017C189.712 50.1687 189.925 50.1022 190.204 50.1022C190.476 50.1022 190.718 50.1589 190.929 50.2725C191.14 50.386 191.349 50.5077 191.557 50.6375C191.615 50.6764 191.677 50.6813 191.741 50.6521C191.806 50.6229 191.858 50.5791 191.897 50.5207L192.267 49.9659C192.299 49.914 192.311 49.8556 192.301 49.7907C192.291 49.7259 192.261 49.6772 192.209 49.6448C192.157 49.6058 192.074 49.5507 191.96 49.4793C191.847 49.4079 191.706 49.3366 191.537 49.2652C191.368 49.1938 191.175 49.1306 190.958 49.0754C190.741 49.0203 190.509 48.9927 190.262 48.9927C189.873 48.9927 189.54 49.0494 189.265 49.163C188.989 49.2765 188.763 49.4225 188.588 49.601C188.413 49.7794 188.283 49.9805 188.199 50.2044C188.115 50.4282 188.072 50.6472 188.072 50.8613C188.072 51.1468 188.124 51.3998 188.228 51.6204C188.332 51.841 188.47 52.0357 188.642 52.2044C188.814 52.3731 189.01 52.5191 189.23 52.6423C189.451 52.7656 189.675 52.8727 189.902 52.9635C190.311 53.1322 190.619 53.3074 190.827 53.4891C191.034 53.6707 191.138 53.8848 191.138 54.1314C191.138 54.339 191.054 54.5158 190.885 54.6618C190.716 54.8078 190.505 54.8808 190.252 54.8808C189.934 54.8808 189.66 54.8175 189.43 54.691C189.2 54.5645 188.984 54.4266 188.783 54.2774C188.737 54.2449 188.681 54.2303 188.612 54.2336C188.544 54.2368 188.491 54.2741 188.452 54.3455L188.102 54.9489C188.056 55.0268 188.04 55.0852 188.053 55.1241C188.066 55.163 188.098 55.202 188.15 55.2409C188.222 55.2993 188.316 55.3723 188.432 55.4599C188.549 55.5475 188.694 55.6318 188.866 55.7129C189.037 55.794 189.242 55.8621 189.479 55.9173C189.715 55.9725 189.986 56 190.291 56ZM196.786 55.9027C196.838 55.9027 196.881 55.8849 196.917 55.8492C196.953 55.8135 196.971 55.7697 196.971 55.7178V50.2579H198.46C198.512 50.2579 198.555 50.24 198.591 50.2044C198.627 50.1687 198.645 50.1249 198.645 50.073V49.2749C198.645 49.223 198.627 49.1792 198.591 49.1435C198.555 49.1078 198.512 49.09 198.46 49.09H194.207C194.155 49.09 194.111 49.1078 194.075 49.1435C194.039 49.1792 194.022 49.223 194.022 49.2749V50.073C194.022 50.1249 194.039 50.1687 194.075 50.2044C194.111 50.24 194.155 50.2579 194.207 50.2579H195.696V55.7178C195.696 55.7697 195.713 55.8135 195.749 55.8492C195.785 55.8849 195.829 55.9027 195.881 55.9027H196.786ZM204.73 55.9027C204.782 55.9027 204.826 55.8849 204.862 55.8492C204.897 55.8135 204.915 55.7697 204.915 55.7178V54.9197C204.915 54.8678 204.897 54.824 204.862 54.7883C204.826 54.7526 204.782 54.7348 204.73 54.7348H201.849V53.0316H204.253C204.305 53.0316 204.349 53.0138 204.385 52.9781C204.42 52.9424 204.438 52.8986 204.438 52.8467V52.0389C204.438 51.987 204.42 51.9432 204.385 51.9075C204.349 51.8719 204.305 51.854 204.253 51.854H201.849V50.2579H204.73C204.782 50.2579 204.826 50.24 204.862 50.2044C204.897 50.1687 204.915 50.1249 204.915 50.073V49.2749C204.915 49.223 204.897 49.1792 204.862 49.1435C204.826 49.1078 204.782 49.09 204.73 49.09H200.769C200.717 49.09 200.673 49.1078 200.638 49.1435C200.602 49.1792 200.584 49.223 200.584 49.2749V55.7178C200.584 55.7697 200.602 55.8135 200.638 55.8492C200.673 55.8849 200.717 55.9027 200.769 55.9027H204.73ZM210.572 56C210.657 56 210.712 55.9643 210.738 55.893L212.441 52.0681H212.47L213.044 55.7567C213.057 55.7892 213.08 55.8216 213.113 55.854C213.145 55.8865 213.184 55.9027 213.229 55.9027H214.115C214.18 55.9027 214.229 55.8832 214.261 55.8443C214.293 55.8054 214.303 55.7502 214.29 55.6789L213.142 49.1387C213.135 49.0997 213.117 49.0657 213.088 49.0365C213.059 49.0073 213.018 48.9927 212.967 48.9927H212.811C212.733 48.9927 212.678 49.0251 212.645 49.09L210.504 53.6837H210.475L208.334 49.09C208.301 49.0251 208.246 48.9927 208.168 48.9927H208.013C207.961 48.9927 207.92 49.0073 207.891 49.0365C207.862 49.0657 207.844 49.0997 207.838 49.1387L206.679 55.6789C206.66 55.8281 206.722 55.9027 206.864 55.9027H207.74C207.786 55.9027 207.825 55.8865 207.857 55.854C207.889 55.8216 207.909 55.7892 207.915 55.7567L208.48 52.0681H208.509L210.232 55.893C210.264 55.9643 210.319 56 210.397 56H210.572ZM218.293 56C218.637 56 218.947 55.9465 219.222 55.8394C219.498 55.7324 219.733 55.5896 219.928 55.4112C220.123 55.2328 220.272 55.0284 220.376 54.7981C220.48 54.5677 220.531 54.326 220.531 54.073C220.531 53.7616 220.47 53.4891 220.347 53.2555C220.223 53.0219 220.064 52.8191 219.87 52.6472C219.675 52.4753 219.456 52.3277 219.213 52.2044C218.969 52.0811 218.731 51.9708 218.497 51.8735C218.102 51.7113 217.811 51.5458 217.626 51.3771C217.441 51.2084 217.349 51.0105 217.349 50.7834C217.349 50.5953 217.422 50.4347 217.568 50.3017C217.714 50.1687 217.926 50.1022 218.205 50.1022C218.478 50.1022 218.72 50.1589 218.93 50.2725C219.141 50.386 219.351 50.5077 219.558 50.6375C219.617 50.6764 219.678 50.6813 219.743 50.6521C219.808 50.6229 219.86 50.5791 219.899 50.5207L220.269 49.9659C220.301 49.914 220.312 49.8556 220.303 49.7907C220.293 49.7259 220.262 49.6772 220.21 49.6448C220.158 49.6058 220.076 49.5507 219.962 49.4793C219.849 49.4079 219.707 49.3366 219.539 49.2652C219.37 49.1938 219.177 49.1306 218.96 49.0754C218.742 49.0203 218.51 48.9927 218.264 48.9927C217.875 48.9927 217.542 49.0494 217.266 49.163C216.99 49.2765 216.765 49.4225 216.59 49.601C216.415 49.7794 216.285 49.9805 216.201 50.2044C216.116 50.4282 216.074 50.6472 216.074 50.8613C216.074 51.1468 216.126 51.3998 216.23 51.6204C216.334 51.841 216.471 52.0357 216.643 52.2044C216.815 52.3731 217.012 52.5191 217.232 52.6423C217.453 52.7656 217.677 52.8727 217.904 52.9635C218.312 53.1322 218.621 53.3074 218.828 53.4891C219.036 53.6707 219.14 53.8848 219.14 54.1314C219.14 54.339 219.055 54.5158 218.887 54.6618C218.718 54.8078 218.507 54.8808 218.254 54.8808C217.936 54.8808 217.662 54.8175 217.432 54.691C217.201 54.5645 216.986 54.4266 216.785 54.2774C216.739 54.2449 216.682 54.2303 216.614 54.2336C216.546 54.2368 216.493 54.2741 216.454 54.3455L216.103 54.9489C216.058 55.0268 216.042 55.0852 216.055 55.1241C216.068 55.163 216.1 55.202 216.152 55.2409C216.223 55.2993 216.317 55.3723 216.434 55.4599C216.551 55.5475 216.695 55.6318 216.867 55.7129C217.039 55.794 217.244 55.8621 217.48 55.9173C217.717 55.9725 217.988 56 218.293 56Z" fill="#050D34"/>
<mask id="mask0_174_1384" style="mask-type:alpha" maskUnits="userSpaceOnUse" x="0" y="1" width="50" height="55">
<path fill-rule="evenodd" clip-rule="evenodd" d="M30.2299 1.14444C29.401 1.22858 29.0259 1.23244 28.6847 1.16082C28.6617 1.1544 28.639 1.14797 28.6166 1.14187C26.9883 1.20032 25.3951 1.39012 23.8438 1.70164C23.7233 1.78449 23.6401 1.86831 23.6101 1.95117C23.6379 1.97301 23.6753 2.00255 23.7031 2.02471C24.1739 2.12138 24.6318 2.0215 25.0897 1.92226C25.5704 1.81789 26.0513 1.71352 26.547 1.83555C27.002 1.94731 26.8082 2.30251 26.704 2.49359C26.672 2.553 26.618 2.6516 26.6695 2.75468C27.0167 3.44484 30.7761 2.23282 31.2404 1.28125C31.2321 1.25684 31.2209 1.22441 31.2129 1.20032C31.1803 1.18426 31.149 1.16917 31.1112 1.15568C30.8688 1.14412 30.6248 1.13577 30.3809 1.13031C30.3338 1.13416 30.2836 1.13898 30.2299 1.14444ZM21.1837 2.89116C20.289 3.10826 19.9007 3.15708 19.5867 3.09317C19.5499 3.08128 19.5138 3.06972 19.4786 3.05848C19.4252 3.03151 19.3901 3.00324 19.3705 2.97402C18.085 3.45285 16.8433 4.01743 15.6489 4.66262C15.6678 4.65492 15.687 4.64689 15.7068 4.63886C16.0026 4.51779 16.9025 4.14911 17.3179 4.27724C17.6898 4.3919 17.4071 4.87651 17.2552 5.13664C17.1986 5.23331 17.0668 5.4594 17.2133 5.60295C17.5481 5.93245 18.8906 5.44462 19.6922 5.01171C20.6868 4.47475 22.3477 3.42074 22.2652 2.87511C22.184 2.82404 22.105 2.77459 21.9122 2.77459C21.76 2.77459 21.5361 2.80542 21.1837 2.89116ZM22.356 4.53173C20.8764 5.43512 20.4303 6.52253 21.4203 6.81318C22.0704 6.94902 22.6991 6.79937 23.3282 6.64971C23.9939 6.49074 24.66 6.33209 25.3521 6.5129C26.3165 6.765 26.5941 7.37808 26.7434 7.70758C27.0149 8.3062 27.572 8.43016 27.7364 8.45329C28.4651 8.5583 29.1588 8.41122 29.7983 8.01684C31.0941 7.21782 31.4292 5.86097 30.8431 5.27037C30.4977 4.92257 29.9138 4.84356 29.1066 5.03625C28.1831 5.25656 27.6356 5.28097 26.9369 5.13356C26.8493 5.11108 26.7623 5.08828 26.6753 5.0658C26.6705 5.06451 26.6664 5.06323 26.6619 5.06227C26.1259 4.89366 25.7879 4.68492 25.7601 4.16594C25.7374 3.73752 25.4227 3.69899 25.0588 3.65435C25.03 3.65081 24.9958 3.64889 24.9565 3.64889C24.5098 3.64889 23.4142 3.88557 22.356 4.53173ZM8.775 9.77712C8.73567 9.87411 8.72767 9.95022 8.7702 9.99357C9.16194 10.3973 13.0486 7.09423 13.3402 6.10959C13.3316 6.09674 13.3214 6.08165 13.3114 6.06656C11.6793 7.15301 10.1597 8.39682 8.775 9.77712ZM12.8433 8.10449C12.8187 8.12537 10.4226 10.1907 11.5604 10.9023C11.9076 10.973 12.2188 10.9084 12.7934 10.647C13.2143 10.4556 14.1999 10.0073 15.0783 10.2533C15.9395 10.4948 16.1291 11.2424 16.2199 11.6018C16.4028 12.3238 17.0018 12.4336 17.1204 12.4484C17.4012 12.4834 18.2563 12.5897 19.3887 11.8761C20.8421 10.9605 21.6345 9.31105 21.0192 8.4828C20.8325 8.23199 20.3378 7.86684 19.1159 8.2413C18.0887 8.55603 17.5205 8.61544 16.864 8.4767C16.7789 8.45294 16.6948 8.42949 16.6113 8.40637C15.8889 8.14849 15.9165 7.81192 15.9619 7.25473C15.9894 6.91784 15.7994 6.77011 15.4806 6.77011C14.8692 6.76979 13.7829 7.31286 12.8433 8.10449ZM23.1863 10.943C22.0836 12.2581 22.4322 13.8196 23.9176 14.2191C24.7148 14.3828 25.4807 14.1882 26.2463 13.9939C27.0489 13.7903 27.8513 13.5867 28.6904 13.7948C30.0271 14.1269 30.6756 14.9731 30.987 15.38C31.5009 16.0512 32.0849 16.2738 32.4846 16.3419C32.7395 16.3855 33.5149 16.5182 34.3518 16.005C35.5193 15.2882 36.2177 13.3407 34.6543 11.9209C34.5661 11.8406 33.7496 11.1498 32.3647 11.6296C31.3762 11.9717 30.7162 12.0211 29.7485 11.8242C29.6177 11.7918 29.4876 11.7597 29.3574 11.7273C28.4304 11.454 27.935 11.1103 27.464 10.4138C27.0192 9.75604 26.4938 9.68925 25.9853 9.62437C25.9402 9.61859 25.8894 9.6157 25.8331 9.6157C25.2236 9.6157 24.0068 9.96415 23.1863 10.943ZM7.10398 11.5838C5.9195 12.9766 4.85942 14.4812 3.94356 16.078C3.8908 16.296 3.88952 16.4752 3.96627 16.586C4.13128 16.6127 4.31579 16.5003 4.69697 16.1396C4.92945 15.9199 5.63617 15.2513 6.20443 15.435C6.7487 15.6107 6.80722 16.4322 6.83504 16.8266C6.88653 17.5482 7.26067 17.6718 7.41897 17.6914C7.62299 17.7168 8.04702 17.7691 8.82889 17.1888C9.75594 16.4999 11.383 14.4639 10.9433 12.8777C10.9414 12.8693 10.7076 12.0864 9.45183 12.7618C8.60888 13.2152 8.17621 13.3379 7.73651 13.2502C7.68087 13.2322 7.62651 13.2146 7.57278 13.1972C6.90348 12.8803 7.54016 12.1458 7.46438 11.6239C7.4519 11.5385 7.40777 11.4984 7.33774 11.4984C7.27762 11.4984 7.19864 11.5279 7.10398 11.5838ZM12.4823 15.5466C11.3688 17.1109 11.5597 18.8262 12.8913 19.217C13.4698 19.3365 13.89 19.2758 14.5548 18.9758C15.0441 18.7549 16.1905 18.2378 17.6056 18.6065C18.9976 18.9684 19.6336 19.9194 19.9393 20.3757C20.4424 21.1272 21.0554 21.3732 21.4813 21.4474C21.7838 21.5004 22.5875 21.6401 23.5702 21.0771C24.9887 20.2643 26.0398 18.0628 24.4588 16.4625C24.3658 16.3678 23.4995 15.5559 21.8404 16.1147C20.6755 16.5068 19.9333 16.5656 18.8978 16.3472C18.7648 16.3129 18.6327 16.2782 18.5006 16.2441L18.4805 16.239C17.6455 15.9779 17.0718 15.6516 16.6094 14.7543C16.2215 14.0028 15.7358 13.9466 15.2213 13.8872C15.1931 13.884 15.1618 13.8821 15.1276 13.8821C14.6082 13.8821 13.394 14.2655 12.4823 15.5466ZM28.1291 19.5804C27.3258 21.2025 28.1758 23.0902 29.9122 23.5408C30.6548 23.6863 31.1402 23.6326 31.8376 23.3282C32.3944 23.0854 33.5517 22.5799 35.0978 22.9483C36.6421 23.316 37.4594 24.292 37.8521 24.7608C38.367 25.3762 38.9429 25.7381 39.5636 25.8377C39.8367 25.8813 40.6678 26.0143 41.5031 25.3951C42.7007 24.5074 43.2203 22.1727 41.3083 20.5345C41.1961 20.4385 40.1702 19.6141 38.7206 20.2455C37.6986 20.6909 36.973 20.7673 35.8464 20.5493C35.6933 20.513 35.5394 20.4764 35.3853 20.4394C33.6799 19.9558 32.7497 18.1008 30.8952 17.8812C30.8501 17.8757 30.7996 17.8728 30.7443 17.8728C30.0958 17.8728 28.7824 18.2604 28.1291 19.5804ZM2.57167 18.9059C2.5285 18.964 2.48789 19.0186 2.44951 19.0697C1.80579 20.5575 1.27943 22.1074 0.881935 23.71C0.873621 23.8419 0.872022 23.9049 0.87426 23.9858C0.888011 24.5202 1.0754 24.6451 1.38943 24.3291C1.94298 23.7713 3.10507 21.2573 3.30397 19.1426C3.32668 18.9023 3.30813 18.4614 3.091 18.4614C2.97843 18.4614 2.81279 18.5796 2.57167 18.9059ZM4.00086 21.5544C3.2385 23.3314 3.3469 25.2204 4.22791 25.5177C4.61292 25.5932 4.89657 25.4885 5.35226 25.1035C5.65989 24.8433 6.47694 24.1525 7.54086 24.4483C8.58623 24.7393 9.11483 25.7409 9.36842 26.2223C9.80908 27.0583 10.37 27.2613 10.6648 27.3075C10.9232 27.3483 11.6104 27.4565 12.4703 26.8142C13.5042 26.0419 14.8553 23.674 13.2934 21.6986C13.2854 21.6887 12.4687 20.687 10.9712 21.4298C9.96961 21.927 9.36138 22.0384 8.56097 21.872C8.45384 21.8422 8.34767 21.8123 8.2431 21.7831C7.31797 21.4539 7.1504 20.9876 6.84661 20.1407C6.67265 19.6558 6.38932 19.4432 6.0593 19.4432C5.39224 19.4432 4.53394 20.3113 4.00086 21.5544ZM16.8056 25.0673C16.0019 26.8156 16.8468 28.9012 18.5439 29.3585C19.2784 29.5069 19.7652 29.4449 20.4725 29.1106C20.9957 28.8639 22.2198 28.2858 23.8513 28.6905C25.4717 29.0923 26.2916 30.1456 26.6859 30.6518C27.2014 31.314 27.7994 31.7061 28.4629 31.8162C28.7555 31.8654 29.6471 32.0138 30.6307 31.3731C32.1104 30.4086 32.953 27.9567 30.9636 26.1531C30.9163 26.1101 29.7798 25.1061 28.0245 25.7896C26.8215 26.2578 26.0089 26.3336 24.8043 26.0905C24.6399 26.05 24.4759 26.0092 24.3118 25.9684C23.135 25.6206 22.4814 25.1807 21.72 24.2256C20.9979 23.3196 20.3315 23.2396 19.6871 23.1625C19.643 23.1571 19.5934 23.1542 19.5391 23.1542C18.8653 23.1542 17.4841 23.5897 16.8056 25.0673ZM0.302835 26.6682C0.10329 28.0642 0 29.4901 0 30.9417C0 31.5798 0.0201463 32.2138 0.0594796 32.8423C0.195387 32.8487 0.292921 32.7077 0.434585 32.3085C0.785067 31.3203 1.23564 31.328 1.55159 31.5085C2.56626 32.0888 2.64588 34.6481 4.03854 33.8459C5.08551 33.2427 5.664 30.3884 4.81529 28.5238C4.74366 28.3664 4.08619 27.0147 3.0939 28.061C2.51861 28.668 2.17229 28.8433 1.72171 28.7556C1.66127 28.7364 1.60211 28.7171 1.54423 28.6988C0.64916 28.2839 1.05081 27.2665 0.598314 26.646C0.555783 26.5875 0.511333 26.5596 0.465284 26.5596C0.4122 26.5596 0.357517 26.5972 0.302835 26.6682ZM35.2782 29.6194C34.6451 31.2563 35.37 33.4433 37.2871 33.9202C38.0415 34.059 38.532 33.9883 39.2298 33.6405C39.7897 33.3614 40.9541 32.7808 42.4849 33.1305C44.0256 33.4825 44.7796 34.532 45.102 34.9807C45.5557 35.6127 46.0789 35.9746 46.6558 36.0559C46.9084 36.0915 47.6765 36.1998 48.5233 35.5048C49.7602 34.4893 50.4286 31.9404 48.6611 30.2569C48.5547 30.1554 47.5758 29.2848 46.1237 30.042C45.1064 30.5726 44.3809 30.6837 43.2495 30.4811C43.0947 30.4457 42.9393 30.4101 42.7839 30.3748C40.9672 29.8699 40.0225 27.839 38.0322 27.6389C37.9961 27.6353 37.9561 27.6334 37.9136 27.6334C37.251 27.6334 35.8682 28.0923 35.2782 29.6194ZM7.23223 31.35C6.8162 33.1205 7.64635 35.0872 8.97377 35.4758C9.54107 35.593 9.90626 35.5195 10.4221 35.1836C10.7767 34.953 11.7185 34.3399 13.1914 34.7221C14.6362 35.0969 15.5082 36.1525 15.8808 36.6034C16.4007 37.2325 16.9722 37.605 17.5795 37.7107C17.8781 37.7624 18.6702 37.8999 19.525 37.3064C21.0088 36.2761 21.3727 33.7326 19.5995 32.1198C19.4767 32.0087 18.3575 31.0526 16.7685 31.7636C15.6662 32.2563 14.9211 32.3446 13.8146 32.1131C13.6711 32.0758 13.5275 32.0385 13.3845 32.0013C13.3772 31.9994 13.3698 31.9974 13.3628 31.9955C12.445 31.7087 11.7629 31.3333 10.9916 30.261C10.3335 29.3467 9.81576 29.2921 9.26733 29.2343C9.24463 29.2317 9.22033 29.2304 9.19506 29.2304C8.646 29.2304 7.59327 29.8136 7.23223 31.35ZM23.9187 35.6514C23.2746 37.374 24.2807 39.3555 26.0295 39.8087C26.7705 39.9545 27.254 39.9008 27.945 39.597C28.4653 39.368 29.6831 38.8317 31.2919 39.2152C32.8979 39.598 33.6999 40.6151 34.042 41.0493C34.5172 41.6524 35.0749 42.0095 35.6992 42.11C35.9751 42.1547 36.8146 42.2895 37.7761 41.7012C39.4365 40.6847 40.0498 38.2029 38.3201 36.6447C38.1266 36.47 37.0752 35.634 35.412 36.3258C34.2275 36.8184 33.4149 36.9051 32.1914 36.6694C32.0245 36.6299 31.8579 36.5904 31.6913 36.5503C29.8023 36.0127 28.8024 33.9252 26.7414 33.6866C26.6937 33.6811 26.6419 33.6782 26.5872 33.6782C25.8374 33.6782 24.4594 34.2052 23.9187 35.6514ZM1.5542 40.4871C1.62199 39.584 1.2843 37.2088 0.68055 35.6204C0.565428 35.3172 0.404257 35.0156 0.265152 34.9405C0.520338 36.8526 0.956203 38.7079 1.5542 40.4871ZM2.30464 38.0541C2.45142 39.7405 3.30972 41.5184 4.1047 41.7843C4.4232 41.8485 4.5978 41.7509 4.79671 41.3983C5.32339 40.4641 6.15866 40.6584 6.76657 40.9862C7.47681 41.3691 8.00605 42.002 8.322 42.38C9.50136 43.7928 10.4444 43.3197 10.7053 43.1412C11.987 42.2641 11.6903 39.6699 10.5403 38.4456C9.39999 37.2314 8.55096 37.4314 8.03963 37.8133C7.35593 38.3236 6.87946 38.4437 6.15003 38.2908C6.0493 38.2629 5.94985 38.2353 5.85135 38.2077C4.78679 37.8354 4.41073 36.7275 3.60008 36.0842C3.41365 35.9362 3.2384 35.8665 3.08075 35.8665C2.52881 35.8662 2.18856 36.7198 2.30464 38.0541ZM14.1349 41.2987C13.8628 42.8826 14.998 44.701 16.516 45.1136C17.1457 45.2434 17.5371 45.1926 18.0666 44.9142C18.4318 44.7221 19.4008 44.2118 20.8791 44.5783C22.345 44.9412 23.1685 45.8703 23.5199 46.2669C24.0079 46.8173 24.5451 47.1465 25.1166 47.2445C25.3695 47.2881 26.1389 47.4208 26.9774 46.9146C28.4631 46.0183 28.8743 43.7773 27.1568 42.3395C27.0346 42.2374 25.9192 41.3594 24.3539 41.9834C23.274 42.4134 22.5305 42.4812 21.4077 42.2525C21.2533 42.2146 21.0991 42.1761 20.945 42.1379C19.1718 41.6179 18.1955 39.6949 16.2621 39.4569C16.2196 39.4514 16.1738 39.4489 16.1259 39.4489C15.4751 39.4489 14.3674 39.9428 14.1349 41.2987ZM4.28568 44.0452C4.12547 44.587 3.96494 44.7389 3.62501 44.6714C3.57577 44.6557 3.52812 44.6403 3.48079 44.6249C3.40468 44.5915 3.32186 44.5491 3.22656 44.4778C3.66914 45.3494 4.15393 46.1966 4.6771 47.0158C4.72347 47.0393 4.77527 47.0701 4.83379 47.1093C5.24088 47.3826 5.71224 47.9205 5.99333 48.242C6.6217 48.9601 6.95076 49.0442 7.11609 48.989C7.76077 48.7722 7.04349 46.0986 5.69113 44.4261C5.39725 44.0625 4.97482 43.6967 4.65919 43.6967C4.49482 43.6967 4.35923 43.7957 4.28568 44.0452ZM8.42966 46.8C8.72961 48.2096 9.97453 49.8233 10.9908 50.1201C11.4027 50.2065 11.6131 50.1467 11.8574 49.875C12.0253 49.6878 12.4724 49.1913 13.6261 49.4897C14.7447 49.779 15.5886 50.5922 15.949 50.9393C16.1454 51.1282 16.6663 51.6298 17.3516 51.7724C17.7325 51.8511 18.0666 51.8125 18.3727 51.6529C19.7676 50.9262 19.3176 48.6566 18.2655 47.751C17.8562 47.3987 16.7696 46.4635 15.5816 47.1032C14.8304 47.5078 14.3047 47.5775 13.4192 47.3897C13.3025 47.3595 13.1864 47.3296 13.0703 47.2988C13.0646 47.2975 13.0585 47.2962 13.0528 47.2946C11.9025 46.9401 11.1625 45.9824 10.2061 45.343C9.87412 45.1207 9.54762 45.0099 9.26365 45.0096C8.60554 45.0096 8.17543 45.6063 8.42966 46.8ZM7.42259 50.6613C8.53927 51.9324 9.7618 53.1069 11.0767 54.1715C11.2597 54.0777 11.63 54.237 11.786 54.3128C12.3047 54.5652 12.8445 55.0004 13.1668 55.2608C14.0258 55.9535 14.4009 55.9606 14.564 55.8443C15.1098 55.4564 14.1284 53.3512 12.9488 52.3785C11.7256 51.3707 11.3339 51.7365 11.2219 51.9411C11.0029 52.3416 10.7816 52.4385 10.3112 52.339C10.2431 52.32 10.1753 52.3014 10.1084 52.2828C9.6745 52.1341 9.27381 51.9064 8.51081 51.1854C7.85461 50.5656 7.68161 50.5589 7.48111 50.5508C7.45424 50.5817 7.43474 50.6186 7.42259 50.6613Z" fill="white"/>
</mask>
<g mask="url(#mask0_174_1384)">
<path fill-rule="evenodd" clip-rule="evenodd" d="M30.2299 1.14444C29.401 1.22858 29.0259 1.23244 28.6847 1.16082C28.6617 1.1544 28.639 1.14797 28.6166 1.14187C26.9883 1.20032 25.3951 1.39012 23.8438 1.70164C23.7233 1.78449 23.6401 1.86831 23.6101 1.95117C23.6379 1.97301 23.6753 2.00255 23.7031 2.02471C24.1739 2.12138 24.6318 2.0215 25.0897 1.92226C25.5704 1.81789 26.0513 1.71352 26.547 1.83555C27.002 1.94731 26.8082 2.30251 26.704 2.49359C26.672 2.553 26.618 2.6516 26.6695 2.75468C27.0167 3.44484 30.7761 2.23282 31.2404 1.28125C31.2321 1.25684 31.2209 1.22441 31.2129 1.20032C31.1803 1.18426 31.149 1.16917 31.1112 1.15568C30.8688 1.14412 30.6248 1.13577 30.3809 1.13031C30.3338 1.13416 30.2836 1.13898 30.2299 1.14444ZM21.1837 2.89116C20.289 3.10826 19.9007 3.15708 19.5867 3.09317C19.5499 3.08128 19.5138 3.06972 19.4786 3.05848C19.4252 3.03151 19.3901 3.00324 19.3705 2.97402C18.085 3.45285 16.8433 4.01743 15.6489 4.66262C15.6678 4.65492 15.687 4.64689 15.7068 4.63886C16.0026 4.51779 16.9025 4.14911 17.3179 4.27724C17.6898 4.3919 17.4071 4.87651 17.2552 5.13664C17.1986 5.23331 17.0668 5.4594 17.2133 5.60295C17.5481 5.93245 18.8906 5.44462 19.6922 5.01171C20.6868 4.47475 22.3477 3.42074 22.2652 2.87511C22.184 2.82404 22.105 2.77459 21.9122 2.77459C21.76 2.77459 21.5361 2.80542 21.1837 2.89116ZM22.356 4.53173C20.8764 5.43512 20.4303 6.52253 21.4203 6.81318C22.0704 6.94902 22.6991 6.79937 23.3282 6.64971C23.9939 6.49074 24.66 6.33209 25.3521 6.5129C26.3165 6.765 26.5941 7.37808 26.7434 7.70758C27.0149 8.3062 27.572 8.43016 27.7364 8.45329C28.4651 8.5583 29.1588 8.41122 29.7983 8.01684C31.0941 7.21782 31.4292 5.86097 30.8431 5.27037C30.4977 4.92257 29.9138 4.84356 29.1066 5.03625C28.1831 5.25656 27.6356 5.28097 26.9369 5.13356C26.8493 5.11108 26.7623 5.08828 26.6753 5.0658C26.6705 5.06451 26.6664 5.06323 26.6619 5.06227C26.1259 4.89366 25.7879 4.68492 25.7601 4.16594C25.7374 3.73752 25.4227 3.69899 25.0588 3.65435C25.03 3.65081 24.9958 3.64889 24.9565 3.64889C24.5098 3.64889 23.4142 3.88557 22.356 4.53173ZM8.775 9.77712C8.73567 9.87411 8.72767 9.95022 8.7702 9.99357C9.16194 10.3973 13.0486 7.09423 13.3402 6.10959C13.3316 6.09674 13.3214 6.08165 13.3114 6.06656C11.6793 7.15301 10.1597 8.39682 8.775 9.77712ZM12.8433 8.10449C12.8187 8.12537 10.4226 10.1907 11.5604 10.9023C11.9076 10.973 12.2188 10.9084 12.7934 10.647C13.2143 10.4556 14.1999 10.0073 15.0783 10.2533C15.9395 10.4948 16.1291 11.2424 16.2199 11.6018C16.4028 12.3238 17.0018 12.4336 17.1204 12.4484C17.4012 12.4834 18.2563 12.5897 19.3887 11.8761C20.8421 10.9605 21.6345 9.31105 21.0192 8.4828C20.8325 8.23199 20.3378 7.86684 19.1159 8.2413C18.0887 8.55603 17.5205 8.61544 16.864 8.4767C16.7789 8.45294 16.6948 8.42949 16.6113 8.40637C15.8889 8.14849 15.9165 7.81192 15.9619 7.25473C15.9894 6.91784 15.7994 6.77011 15.4806 6.77011C14.8692 6.76979 13.7829 7.31286 12.8433 8.10449ZM23.1863 10.943C22.0836 12.2581 22.4322 13.8196 23.9176 14.2191C24.7148 14.3828 25.4807 14.1882 26.2463 13.9939C27.0489 13.7903 27.8513 13.5867 28.6904 13.7948C30.0271 14.1269 30.6756 14.9731 30.987 15.38C31.5009 16.0512 32.0849 16.2738 32.4846 16.3419C32.7395 16.3855 33.5149 16.5182 34.3518 16.005C35.5193 15.2882 36.2177 13.3407 34.6543 11.9209C34.5661 11.8406 33.7496 11.1498 32.3647 11.6296C31.3762 11.9717 30.7162 12.0211 29.7485 11.8242C29.6177 11.7918 29.4876 11.7597 29.3574 11.7273C28.4304 11.454 27.935 11.1103 27.464 10.4138C27.0192 9.75604 26.4938 9.68925 25.9853 9.62437C25.9402 9.61859 25.8894 9.6157 25.8331 9.6157C25.2236 9.6157 24.0068 9.96415 23.1863 10.943ZM7.10398 11.5838C5.9195 12.9766 4.85942 14.4812 3.94356 16.078C3.8908 16.296 3.88952 16.4752 3.96627 16.586C4.13128 16.6127 4.31579 16.5003 4.69697 16.1396C4.92945 15.9199 5.63617 15.2513 6.20443 15.435C6.7487 15.6107 6.80722 16.4322 6.83504 16.8266C6.88653 17.5482 7.26067 17.6718 7.41897 17.6914C7.62299 17.7168 8.04702 17.7691 8.82889 17.1888C9.75594 16.4999 11.383 14.4639 10.9433 12.8777C10.9414 12.8693 10.7076 12.0864 9.45183 12.7618C8.60888 13.2152 8.17621 13.3379 7.73651 13.2502C7.68087 13.2322 7.62651 13.2146 7.57278 13.1972C6.90348 12.8803 7.54016 12.1458 7.46438 11.6239C7.4519 11.5385 7.40777 11.4984 7.33774 11.4984C7.27762 11.4984 7.19864 11.5279 7.10398 11.5838ZM12.4823 15.5466C11.3688 17.1109 11.5597 18.8262 12.8913 19.217C13.4698 19.3365 13.89 19.2758 14.5548 18.9758C15.0441 18.7549 16.1905 18.2378 17.6056 18.6065C18.9976 18.9684 19.6336 19.9194 19.9393 20.3757C20.4424 21.1272 21.0554 21.3732 21.4813 21.4474C21.7838 21.5004 22.5875 21.6401 23.5702 21.0771C24.9887 20.2643 26.0398 18.0628 24.4588 16.4625C24.3658 16.3678 23.4995 15.5559 21.8404 16.1147C20.6755 16.5068 19.9333 16.5656 18.8978 16.3472C18.7648 16.3129 18.6327 16.2782 18.5006 16.2441L18.4805 16.239C17.6455 15.9779 17.0718 15.6516 16.6094 14.7543C16.2215 14.0028 15.7358 13.9466 15.2213 13.8872C15.1931 13.884 15.1618 13.8821 15.1276 13.8821C14.6082 13.8821 13.394 14.2655 12.4823 15.5466ZM28.1291 19.5804C27.3258 21.2025 28.1758 23.0902 29.9122 23.5408C30.6548 23.6863 31.1402 23.6326 31.8376 23.3282C32.3944 23.0854 33.5517 22.5799 35.0978 22.9483C36.6421 23.316 37.4594 24.292 37.8521 24.7608C38.367 25.3762 38.9429 25.7381 39.5636 25.8377C39.8367 25.8813 40.6678 26.0143 41.5031 25.3951C42.7007 24.5074 43.2203 22.1727 41.3083 20.5345C41.1961 20.4385 40.1702 19.6141 38.7206 20.2455C37.6986 20.6909 36.973 20.7673 35.8464 20.5493C35.6933 20.513 35.5394 20.4764 35.3853 20.4394C33.6799 19.9558 32.7497 18.1008 30.8952 17.8812C30.8501 17.8757 30.7996 17.8728 30.7443 17.8728C30.0958 17.8728 28.7824 18.2604 28.1291 19.5804ZM2.57167 18.9059C2.5285 18.964 2.48789 19.0186 2.44951 19.0697C1.80579 20.5575 1.27943 22.1074 0.881935 23.71C0.873621 23.8419 0.872022 23.9049 0.87426 23.9858C0.888011 24.5202 1.0754 24.6451 1.38943 24.3291C1.94298 23.7713 3.10507 21.2573 3.30397 19.1426C3.32668 18.9023 3.30813 18.4614 3.091 18.4614C2.97843 18.4614 2.81279 18.5796 2.57167 18.9059ZM4.00086 21.5544C3.2385 23.3314 3.3469 25.2204 4.22791 25.5177C4.61292 25.5932 4.89657 25.4885 5.35226 25.1035C5.65989 24.8433 6.47694 24.1525 7.54086 24.4483C8.58623 24.7393 9.11483 25.7409 9.36842 26.2223C9.80908 27.0583 10.37 27.2613 10.6648 27.3075C10.9232 27.3483 11.6104 27.4565 12.4703 26.8142C13.5042 26.0419 14.8553 23.674 13.2934 21.6986C13.2854 21.6887 12.4687 20.687 10.9712 21.4298C9.96961 21.927 9.36138 22.0384 8.56097 21.872C8.45384 21.8422 8.34767 21.8123 8.2431 21.7831C7.31797 21.4539 7.1504 20.9876 6.84661 20.1407C6.67265 19.6558 6.38932 19.4432 6.0593 19.4432C5.39224 19.4432 4.53394 20.3113 4.00086 21.5544ZM16.8056 25.0673C16.0019 26.8156 16.8468 28.9012 18.5439 29.3585C19.2784 29.5069 19.7652 29.4449 20.4725 29.1106C20.9957 28.8639 22.2198 28.2858 23.8513 28.6905C25.4717 29.0923 26.2916 30.1456 26.6859 30.6518C27.2014 31.314 27.7994 31.7061 28.4629 31.8162C28.7555 31.8654 29.6471 32.0138 30.6307 31.3731C32.1104 30.4086 32.953 27.9567 30.9636 26.1531C30.9163 26.1101 29.7798 25.1061 28.0245 25.7896C26.8215 26.2578 26.0089 26.3336 24.8043 26.0905C24.6399 26.05 24.4759 26.0092 24.3118 25.9684C23.135 25.6206 22.4814 25.1807 21.72 24.2256C20.9979 23.3196 20.3315 23.2396 19.6871 23.1625C19.643 23.1571 19.5934 23.1542 19.5391 23.1542C18.8653 23.1542 17.4841 23.5897 16.8056 25.0673ZM0.302835 26.6682C0.10329 28.0642 0 29.4901 0 30.9417C0 31.5798 0.0201463 32.2138 0.0594796 32.8423C0.195387 32.8487 0.292921 32.7077 0.434585 32.3085C0.785067 31.3203 1.23564 31.328 1.55159 31.5085C2.56626 32.0888 2.64588 34.6481 4.03854 33.8459C5.08551 33.2427 5.664 30.3884 4.81529 28.5238C4.74366 28.3664 4.08619 27.0147 3.0939 28.061C2.51861 28.668 2.17229 28.8433 1.72171 28.7556C1.66127 28.7364 1.60211 28.7171 1.54423 28.6988C0.64916 28.2839 1.05081 27.2665 0.598314 26.646C0.555783 26.5875 0.511333 26.5596 0.465284 26.5596C0.4122 26.5596 0.357517 26.5972 0.302835 26.6682ZM35.2782 29.6194C34.6451 31.2563 35.37 33.4433 37.2871 33.9202C38.0415 34.059 38.532 33.9883 39.2298 33.6405C39.7897 33.3614 40.9541 32.7808 42.4849 33.1305C44.0256 33.4825 44.7796 34.532 45.102 34.9807C45.5557 35.6127 46.0789 35.9746 46.6558 36.0559C46.9084 36.0915 47.6765 36.1998 48.5233 35.5048C49.7602 34.4893 50.4286 31.9404 48.6611 30.2569C48.5547 30.1554 47.5758 29.2848 46.1237 30.042C45.1064 30.5726 44.3809 30.6837 43.2495 30.4811C43.0947 30.4457 42.9393 30.4101 42.7839 30.3748C40.9672 29.8699 40.0225 27.839 38.0322 27.6389C37.9961 27.6353 37.9561 27.6334 37.9136 27.6334C37.251 27.6334 35.8682 28.0923 35.2782 29.6194ZM7.23223 31.35C6.8162 33.1205 7.64635 35.0872 8.97377 35.4758C9.54107 35.593 9.90626 35.5195 10.4221 35.1836C10.7767 34.953 11.7185 34.3399 13.1914 34.7221C14.6362 35.0969 15.5082 36.1525 15.8808 36.6034C16.4007 37.2325 16.9722 37.605 17.5795 37.7107C17.8781 37.7624 18.6702 37.8999 19.525 37.3064C21.0088 36.2761 21.3727 33.7326 19.5995 32.1198C19.4767 32.0087 18.3575 31.0526 16.7685 31.7636C15.6662 32.2563 14.9211 32.3446 13.8146 32.1131C13.6711 32.0758 13.5275 32.0385 13.3845 32.0013C13.3772 31.9994 13.3698 31.9974 13.3628 31.9955C12.445 31.7087 11.7629 31.3333 10.9916 30.261C10.3335 29.3467 9.81576 29.2921 9.26733 29.2343C9.24463 29.2317 9.22033 29.2304 9.19506 29.2304C8.646 29.2304 7.59327 29.8136 7.23223 31.35ZM23.9187 35.6514C23.2746 37.374 24.2807 39.3555 26.0295 39.8087C26.7705 39.9545 27.254 39.9008 27.945 39.597C28.4653 39.368 29.6831 38.8317 31.2919 39.2152C32.8979 39.598 33.6999 40.6151 34.042 41.0493C34.5172 41.6524 35.0749 42.0095 35.6992 42.11C35.9751 42.1547 36.8146 42.2895 37.7761 41.7012C39.4365 40.6847 40.0498 38.2029 38.3201 36.6447C38.1266 36.47 37.0752 35.634 35.412 36.3258C34.2275 36.8184 33.4149 36.9051 32.1914 36.6694C32.0245 36.6299 31.8579 36.5904 31.6913 36.5503C29.8023 36.0127 28.8024 33.9252 26.7414 33.6866C26.6937 33.6811 26.6419 33.6782 26.5872 33.6782C25.8374 33.6782 24.4594 34.2052 23.9187 35.6514ZM1.5542 40.4871C1.62199 39.584 1.2843 37.2088 0.68055 35.6204C0.565428 35.3172 0.404257 35.0156 0.265152 34.9405C0.520338 36.8526 0.956203 38.7079 1.5542 40.4871ZM2.30464 38.0541C2.45142 39.7405 3.30972 41.5184 4.1047 41.7843C4.4232 41.8485 4.5978 41.7509 4.79671 41.3983C5.32339 40.4641 6.15866 40.6584 6.76657 40.9862C7.47681 41.3691 8.00605 42.002 8.322 42.38C9.50136 43.7928 10.4444 43.3197 10.7053 43.1412C11.987 42.2641 11.6903 39.6699 10.5403 38.4456C9.39999 37.2314 8.55096 37.4314 8.03963 37.8133C7.35593 38.3236 6.87946 38.4437 6.15003 38.2908C6.0493 38.2629 5.94985 38.2353 5.85135 38.2077C4.78679 37.8354 4.41073 36.7275 3.60008 36.0842C3.41365 35.9362 3.2384 35.8665 3.08075 35.8665C2.52881 35.8662 2.18856 36.7198 2.30464 38.0541ZM14.1349 41.2987C13.8628 42.8826 14.998 44.701 16.516 45.1136C17.1457 45.2434 17.5371 45.1926 18.0666 44.9142C18.4318 44.7221 19.4008 44.2118 20.8791 44.5783C22.345 44.9412 23.1685 45.8703 23.5199 46.2669C24.0079 46.8173 24.5451 47.1465 25.1166 47.2445C25.3695 47.2881 26.1389 47.4208 26.9774 46.9146C28.4631 46.0183 28.8743 43.7773 27.1568 42.3395C27.0346 42.2374 25.9192 41.3594 24.3539 41.9834C23.274 42.4134 22.5305 42.4812 21.4077 42.2525C21.2533 42.2146 21.0991 42.1761 20.945 42.1379C19.1718 41.6179 18.1955 39.6949 16.2621 39.4569C16.2196 39.4514 16.1738 39.4489 16.1259 39.4489C15.4751 39.4489 14.3674 39.9428 14.1349 41.2987ZM4.28568 44.0452C4.12547 44.587 3.96494 44.7389 3.62501 44.6714C3.57577 44.6557 3.52812 44.6403 3.48079 44.6249C3.40468 44.5915 3.32186 44.5491 3.22656 44.4778C3.66914 45.3494 4.15393 46.1966 4.6771 47.0158C4.72347 47.0393 4.77527 47.0701 4.83379 47.1093C5.24088 47.3826 5.71224 47.9205 5.99333 48.242C6.6217 48.9601 6.95076 49.0442 7.11609 48.989C7.76077 48.7722 7.04349 46.0986 5.69113 44.4261C5.39725 44.0625 4.97482 43.6967 4.65919 43.6967C4.49482 43.6967 4.35923 43.7957 4.28568 44.0452ZM8.42966 46.8C8.72961 48.2096 9.97453 49.8233 10.9908 50.1201C11.4027 50.2065 11.6131 50.1467 11.8574 49.875C12.0253 49.6878 12.4724 49.1913 13.6261 49.4897C14.7447 49.779 15.5886 50.5922 15.949 50.9393C16.1454 51.1282 16.6663 51.6298 17.3516 51.7724C17.7325 51.8511 18.0666 51.8125 18.3727 51.6529C19.7676 50.9262 19.3176 48.6566 18.2655 47.751C17.8562 47.3987 16.7696 46.4635 15.5816 47.1032C14.8304 47.5078 14.3047 47.5775 13.4192 47.3897C13.3025 47.3595 13.1864 47.3296 13.0703 47.2988C13.0646 47.2975 13.0585 47.2962 13.0528 47.2946C11.9025 46.9401 11.1625 45.9824 10.2061 45.343C9.87412 45.1207 9.54762 45.0099 9.26365 45.0096C8.60554 45.0096 8.17543 45.6063 8.42966 46.8ZM7.42259 50.6613C8.53927 51.9324 9.7618 53.1069 11.0767 54.1715C11.2597 54.0777 11.63 54.237 11.786 54.3128C12.3047 54.5652 12.8445 55.0004 13.1668 55.2608C14.0258 55.9535 14.4009 55.9606 14.564 55.8443C15.1098 55.4564 14.1284 53.3512 12.9488 52.3785C11.7256 51.3707 11.3339 51.7365 11.2219 51.9411C11.0029 52.3416 10.7816 52.4385 10.3112 52.339C10.2431 52.32 10.1753 52.3014 10.1084 52.2828C9.6745 52.1341 9.27381 51.9064 8.51081 51.1854C7.85461 50.5656 7.68161 50.5589 7.48111 50.5508C7.45424 50.5817 7.43474 50.6186 7.42259 50.6613Z" fill="url(#paint0_linear_174_1384)"/>
</g>
<defs>
<linearGradient id="paint0_linear_174_1384" x1="0" y1="55.9007" x2="49.7387" y2="55.9007" gradientUnits="userSpaceOnUse">
<stop stop-color="#F14C4F"/>
<stop offset="0.452782" stop-color="#DC02A5"/>
<stop offset="0.75132" stop-color="#754FF7"/>
<stop offset="1" stop-color="#3786F8"/>
</linearGradient>
</defs>
</svg>
